<?xml version="1.0" encoding="utf-8"?>
<!-- Generator: Adobe Illustrator 25.0.0, SVG Export Plug-In . SVG Version: 6.00 Build 0)  -->
<svg version="1.0" id="Layer_1" xmlns="http://www.w3.org/2000/svg" xmlns:xlink="http://www.w3.org/1999/xlink" x="0px" y="0px"
	 viewBox="0 0 595.28 841.89" style="enable-background:new 0 0 595.28 841.89;" xml:space="preserve">
<style type="text/css">
	.st0{fill-rule:evenodd;clip-rule:evenodd;fill:#020304;}
	.st1{fill:#020304;}
</style>
<g>
	<path class="st0" d="M504.06,344.45c-2.89-2.08-5.93-1.72-8.28,0.5c-2.36,2.23-3.83,4.96-4.22,8.21c-0.68,5.76,2.25,8.46,8.01,7.79
		c2.77-0.32,5.63-0.18,8.42,0.06c0.83,0.07,2.02,1.11,2.21,1.91c0.19,0.78-0.46,2.07-1.15,2.68c-3.68,3.34-8.24,4.53-13.07,4.38
		c-5.28-0.17-7.49-3.1-6.72-8.28c0.01-0.1-0.11-0.21-0.26-0.52c-3.05,1.56-6.02,3.31-9.17,4.64c-3.2,1.36-6.56,2.31-9.86,3.45
		c0.03-0.8,0.22-1.19,0.45-1.56c3.63-5.89,3.15-9.99-1.75-14.82c-5.95-5.86-13.07-6.44-19.43-1.09c-3.18,2.68-5.92,5.96-8.54,9.22
		c-2.03,2.52-3.56,5.43-5.3,8.15c-3.91-1.19-5.37-4.77-7.84-7.87c-0.73,3.37-2.38,6.25,0,9.39c1.08,1.42,1.68,3.22,2.4,4.89
		c3.07,7.17,2.23,9.64-4.56,13.43c-6.67,3.72-13.7,6.59-21.07,8.56c-6.43,1.73-12.95,2.6-19.56,0.9c-4.92-1.27-8.41-4.17-9.85-9.16
		c-1.17-4.03-0.91-8.09,0.07-12.12c0.35-1.47,0.73-2.94,1.11-4.4c1.05-0.44,2.09-0.87,3.16-1.32c0.47,0.74,0.92,1.51,1.44,2.24
		c1.79,2.54,3.66,5.02,6.79,6.08c3.31,1.12,6.12,0.04,7.14-3.26c0.78-2.53,1.15-5.3,1.13-7.96c-0.05-5.02-3.3-7.57-8.33-6.84
		c-1.88,0.28-3.72,0.83-5.99,1.35c-5.27-20.42-6.04-41.42-8.78-62.14c0.38-0.25,0.75-0.51,1.12-0.76c0.95,1.5,1.9,2.99,2.86,4.49
		c0.33-0.24,0.67-0.48,1.01-0.72c-2.28-5.92-4.55-11.83-6.83-17.75c-0.24,0.04-0.49,0.07-0.73,0.11c-0.52,1.08-1.09,2.14-1.55,3.25
		c-0.81,1.93-2.87,3.72-0.76,6.03c0.11,0.11,0.04,0.38,0.05,0.57c0.9,10.86,1.66,21.74,2.73,32.58c1.18,11.93,2.96,23.79,5.97,35.42
		c0.25,0.96,0.16,1.42-0.75,1.78c-2.65,1.02-5.27,2.06-7.9,3.12c-1.06,0.43-1.52,0-2.14-0.9c-1.33-1.96-2.73-3.93-4.42-5.56
		c-2.78-2.67-6.31-2.62-9.03-0.11c-2.3,2.13-3.73,4.79-4.17,7.89c-0.62,4.4,1.36,7.11,5.74,7.42c2.92,0.21,5.9-0.11,8.83-0.43
		c2.16-0.24,2.89,0.14,2.77,2.38c-0.05,0.95-0.44,2.09-1.08,2.76c-2.03,2.15-4.12,4.27-6.42,6.12c-5.38,4.35-11.01,8.34-17.83,10.19
		c-6.08,1.65-11.17,0.1-14.28-4.41c-2.68-3.89-2.58-8.25-1.93-12.65c0.26-1.81,0.68-3.6,1.04-5.39c-0.69,0.3-1.05,0.73-1.24,1.22
		c-2.28,6.07-3.38,12.27-2,18.75c1.23,5.72,5.16,9.58,10.84,10.39c3.19,0.46,6.31-0.06,9.28-1.26c7.75-3.11,14.12-8.18,19.89-14.09
		c3.81-3.89,6.07-8.42,6.14-13.96c0.01-0.48,0.31-1.23,0.67-1.39c2.09-0.93,4.2-1.82,6.33-2.71c-0.12,0.22-0.23,0.44-0.32,0.66
		c-2.26,5.57-3.26,11.36-2.71,17.35c0.63,6.84,3.74,12.16,10.65,14.03c3.75,1.02,7.88,1.54,11.72,1.16
		c12.01-1.17,22.7-6.12,32.72-12.65c3.62-2.36,5.67-5.83,6.44-10.02c0.44-2.33,0.62-4.7,0.86-6.64c18.38,3.05,35.8,0.85,52.15-9.15
		c0.34,1.4,0.64,2.59,0.92,3.79c0.78,3.42,2.92,5.18,6.43,5.12c1.7-0.03,3.4-0.15,5.08-0.4c6.03-0.89,10.88-3.49,13.12-9.57
		C515.21,358.15,510.58,349.14,504.06,344.45z M497.47,353.75c-0.6-0.01-1.2-0.79-1.8-1.22c0.58-0.64,1.05-1.61,1.76-1.87
		c2.21-0.81,4.4,0.19,6.09,2.69C501.39,353.51,499.43,353.77,497.47,353.75z M391.92,371.04c0.29,0.36,0.65,1.11,0.5,1.32
		c-0.28,0.38-0.93,0.68-1.43,0.69c-2.53,0.01-4.29-1.38-5.92-3.63C387.83,369.05,390.18,368.87,391.92,371.04z M359.91,371.27
		c-2.04-0.22-4.12-0.28-6.11-0.73c-1.39-0.31-1.49-1.71-0.17-2.33c0.87-0.4,2.16-0.5,3.03-0.15c1.28,0.52,2.36,1.56,3.52,2.38
		C360.1,370.72,360.01,370.99,359.91,371.27z M468.06,365.95c-9.37,4.73-19.15,6.69-29.56,4.34c-0.12-0.02-0.21-0.13-0.46-0.31
		c2.86-4.77,6.06-9.09,10.62-12.21c4.81-3.3,10.02-3.4,14.75-0.01c1.96,1.41,3.61,3.29,5.24,5.1
		C469.66,363.97,469.57,365.19,468.06,365.95z M469.65,397.53c-2.44-1.42-4.77-2.78-7.2-4.2c-1.2,2.18-2.33,4.23-3.51,6.36
		c2.54,1.47,4.87,2.81,7.29,4.2c1.01-1.75,1.98-3.42,3.02-5.21c2.44,1.4,4.8,2.76,7.22,4.16c1.22-2.2,2.33-4.19,3.47-6.26
		c-2.55-1.5-4.86-2.86-7.28-4.28C471.62,394.11,470.66,395.78,469.65,397.53z M485.92,335.98c2.44,1.45,4.74,2.8,7.31,4.32
		c1.21-2.17,2.33-4.16,3.52-6.27c-2.47-1.46-4.82-2.84-7.31-4.31C488.24,331.85,487.12,333.84,485.92,335.98z M438.44,338.51
		c2.49,1.47,4.84,2.86,7.32,4.32c1.2-2.15,2.32-4.15,3.51-6.27c-2.48-1.46-4.82-2.84-7.3-4.29
		C440.77,334.38,439.67,336.33,438.44,338.51z M506.45,310.93l0.21-2.93c-6.08,2.91-10.8,5.24-14.17,6.98
		c-8.45,4.54-14.51,7.85-18.16,9.9l-0.27,2.88c7.67-4.36,13.72-7.67,18.16-9.9C498.79,314.62,503.53,312.31,506.45,310.93z
		 M420.71,335.01c1.56,0,4.68-2.14,9.35-6.42c4.67-4.28,7.75-7.78,9.24-10.52c1.67,0.82,2.78,1.33,3.35,1.55
		c0.36,0.14,0.67-0.17,0.96-0.93c0.28-0.76,0.32-1.47,0.11-2.1c-1.03-0.93-1.99-1.62-2.87-2.08c0.49-1.28,0.74-2.48,0.74-3.62
		c0-2.84-1.19-4.26-3.57-4.26c-0.82,0-1.8,0.76-2.93,2.29c-1.14,1.53-1.7,2.68-1.7,3.46c0,1.38,0.44,2.47,1.33,3.25
		c1,0.61,1.97,1.21,2.93,1.81c-1,2.17-3.92,5.38-8.79,9.64c-2.94,2.52-5.87,5.04-8.79,7.56
		C420.17,334.89,420.38,335.01,420.71,335.01z M436.2,311.36c0.11-0.82,0.6-1.22,1.49-1.22c1.14,0,1.7,0.93,1.7,2.77
		c0,0.43-0.05,0.83-0.16,1.22C437.11,313,436.1,312.08,436.2,311.36z M506.48,399.26c-0.49,0.5-1.24,1.05-1.85,1.03
		c-0.5-0.02-1.18-0.77-1.41-1.35c-0.32-0.79-0.52-1.74-0.39-2.57c0.66-4.43,1.45-8.83,2.2-13.25c0.11-0.62,0.26-1.23,0.4-1.85
		c-0.16-0.07-0.32-0.14-0.47-0.21c-0.51,0.98-1.22,1.9-1.49,2.93c-0.86,3.34-1.68,6.7-2.25,10.1c-0.5,2.94-0.47,5.91,1.1,8.63
		c0.9,1.54,2.09,1.84,3.58,0.92c1.5-0.91,2.45-4.42,1.59-6.31C507.12,398.05,506.94,398.79,506.48,399.26z M314.32,363.81
		c-0.91,2.3-0.77,4.37,0.81,6.38c0.63,0.8,1.11,1.85,1.27,2.84c0.11,0.68-0.19,1.8-0.71,2.17c-3.35,2.44-10.25,1.39-11.48-4.16
		c-0.67-3.01-1.3-6.06-1.6-9.12c-1.18-12.36-4.97-23.78-11.89-34.12c-0.42-0.63-0.86-1.25-1.29-1.87c-0.16,0.07-0.32,0.13-0.48,0.19
		c-0.19,3.36-1.09,6.63,0.5,10.06c3.9,8.41,7.3,17.02,9.51,26.06c0.52,2.13-0.02,3.74-1.54,5.18c-6.74,6.38-14.05,11.94-22.47,15.92
		c-3.96,1.86-8.12,3.02-12.58,1.9c-2.43-0.61-3.53-1.85-3.89-4.34c-0.08-0.6-0.12-1.18-0.12-1.77c2.64-4.74,3.58-9.88,2.89-15.19
		c-1.23-9.47-5.22-35.32-6.72-44.76c-0.98-6.2-2.16-12.37-3.31-18.93c1.65,1.5,3.01,2.76,4.37,4c0.23-0.16,0.45-0.33,0.67-0.49
		c-2.63-5.95-5.25-11.9-7.88-17.84c-0.27,0.04-0.54,0.08-0.82,0.12c-0.38,3.14-4.18,5.56-1.61,9.35c0.14,0.19,0.1,0.51,0.14,0.76
		c2.18,13.35,6.87,43.09,8.98,56.46c0.94,5.98,1.65,11.99,2.42,17.99c0.25,1.9,0.17,3.73-1.3,5.29c-3.61,3.84-11.09,4.13-14.95,0.52
		c-2.71-2.54-3.67-5.89-4.37-9.38c-1.03-5.16-2.04-10.32-3.22-15.45c-0.28-1.21-1.18-2.28-1.79-3.41c-0.24,0.04-0.48,0.08-0.72,0.11
		c-0.45,1.25-0.92,2.49-1.35,3.75c-0.62,1.84-1.06,3.77-1.87,5.52c-1.2,2.63-3.49,3.71-6.34,3.73c-2.77,0.01-4.92-1.04-6.26-3.54
		c-0.41-0.77-0.89-1.52-1.33-2.27c-0.17,0.05-0.33,0.1-0.49,0.16c-0.21,1.07-0.35,2.17-0.66,3.22c-0.62,2.17-0.34,4.07,0.81,6.1
		c1.4,2.47,2.36,5.19,3.42,7.84c0.92,2.32,0.5,4.36-1.64,5.84c-5.29,3.65-10.44,7.54-15.94,10.84c-4.52,2.7-9.58,3.95-15,3.14
		c-5.77-0.87-9.43-4.52-9.32-10.37c0.06-2.95,0.69-5.89,1.25-8.83c2.19-0.83,4.25-2,6.16-3.48c1.03-0.79,1.88-0.76,3.04-0.34
		c4.42,1.6,9,2.03,13.69,1.46c3.05-0.38,4.81-2.24,5.34-5.06c0.97-5.29-0.32-9.94-4.81-13.28c-1.78-1.33-3.75-2.41-5.6-3.65
		c-1.5-1.01-2.96-2.1-4.83-3.42c1.28-0.08,1.94-0.11,2.58-0.15c0.04-0.14,0.09-0.29,0.13-0.43c-2.68-1.68-5.36-3.36-8.5-5.33
		c-0.21,1.92-0.28,3.36-0.55,4.76c-0.23,1.09-0.61,2.18-1.11,3.18c-1.38,2.77-3.15,5.38-4.2,8.27c-1.2,3.27-1.72,6.76,0.79,9.93
		c-3.37,2.38-6.95,2.85-10.77,1.68c-4.47-1.37-6.94-4.83-7.85-9c-1.43-6.57-2.23-13.28-3.23-19.94c-1.7-11.19-3.26-22.4-5.07-33.58
		c-0.79-4.86-2.43-9.52-4.56-13.97c-0.17,0-0.34,0-0.5,0c-0.59,2.07-1.18,4.13-1.72,6.21c-0.08,0.3,0.05,0.7,0.17,1.01
		c3.4,8.34,4.72,17.18,5.94,26.01c1.49,10.69,2.59,21.44,3.93,32.16c0.58,4.57,1.74,9,4.42,12.86c2.65,3.84,6.42,5.66,11.02,5.41
		c1.2-0.06,2.36-0.24,3.5-0.5c-1.51,4.69-1.87,9.59-1.42,14.57c0.64,7,4.78,10.92,11.82,11.41c1.98,0.13,4.06-0.05,5.99-0.52
		c9.4-2.31,17.29-7.32,24.25-13.92c3.22-3.06,4.8-6.89,5.2-11.26c0.17-1.87,0.3-3.74,0.47-5.76c6.91-0.67,9.33-5.58,10.54-11.73
		c0.56,1.21,0.87,2.3,1.08,3.4c1.05,5.55,1.99,11.13,3.16,16.66c0.58,2.71,1.95,5.1,4.21,6.85c5.08,3.93,12.37,3.02,16.88-1.55
		c-0.04,0.5-0.06,1.01-0.07,1.52c-0.11,5.26,2.78,8.65,8.01,9.08c2.32,0.19,4.87-0.16,7.05-0.98c9.06-3.38,16.86-8.78,23.72-15.55
		c2.54-2.51,4.5-5.4,5.11-9.13c0.1,0.59,0.2,1.18,0.3,1.77c0.4,2.5,0.62,5.04,1.25,7.48c0.82,3.15,2.66,5.56,6.01,6.45
		c3.61,0.96,6.52-0.25,9.05-2.83c4.34-4.43,3.89-13.3-1.15-19.86C314.93,361.6,314.74,362.75,314.32,363.81z M201.18,360.71
		c0.66,0.48,1.29,1.98,1,2.51c-0.39,0.71-1.7,1.34-2.57,1.29c-3.31-0.2-6.61-0.69-10-1.08c0.96-3.03,1.8-5.68,2.76-8.7
		C195.33,356.71,198.33,358.6,201.18,360.71z M181.75,353.75c1.05-1.28,2.01-3.14,3.95-2.83c1.96,0.31,2.43,2.35,3.09,3.96
		c0.37,0.91,0.56,1.89,0.83,2.84c-0.13,2.56-3.54,4.9-5.85,3.96C178.85,359.68,178.37,357.89,181.75,353.75z M394.03,298.74
		c1.31,13.33,2.69,26.66,3.79,40.02c0.95,11.49,1.56,23,2.31,34.5c0.11,1.58,0.11,3.16,0.16,4.74c0.17,0.02,0.34,0.04,0.51,0.06
		c0.16-0.18,0.38-0.35,0.49-0.56c0.23-0.46,0.42-0.94,0.59-1.42c1.92-5.14,2.87-10.49,2.41-15.94c-1.33-15.86-2.83-31.69-4.3-47.53
		c-0.32-3.43-0.75-6.86-1.18-10.75c1.59,1.65,2.84,2.95,4.09,4.25c0.26-0.18,0.52-0.35,0.78-0.53c-2.3-6.05-4.61-12.09-6.9-18.13
		c-0.23,0.05-0.47,0.09-0.69,0.13c-1.01,2.15-2.04,4.29-3,6.46c-0.16,0.35-0.08,0.85,0.02,1.25
		C393.38,296.46,393.92,297.58,394.03,298.74z M323.95,298.74c1.31,13.33,2.69,26.66,3.79,40.02c0.95,11.49,1.56,23,2.31,34.5
		c0.1,1.58,0.11,3.16,0.16,4.74c0.17,0.02,0.34,0.04,0.51,0.06c0.17-0.18,0.38-0.35,0.49-0.56c0.23-0.46,0.42-0.94,0.59-1.42
		c1.92-5.14,2.88-10.49,2.42-15.94c-1.33-15.86-2.84-31.69-4.3-47.53c-0.33-3.43-0.75-6.86-1.19-10.75
		c1.59,1.65,2.84,2.95,4.09,4.25c0.25-0.18,0.52-0.35,0.78-0.53c-2.3-6.05-4.6-12.09-6.9-18.13c-0.23,0.05-0.46,0.09-0.7,0.13
		c-1.01,2.15-2.03,4.29-3,6.46c-0.15,0.35-0.08,0.85,0.03,1.25C323.29,296.46,323.83,297.58,323.95,298.74z M319.24,342.16
		c-3.15,1.85-5.07,2.77-5.76,2.77c-1.1,0-2.41-0.76-3.92-2.27c0.62-0.84,1.26-1.44,1.92-1.8c0.3-0.15,0.6-0.25,0.88-0.31
		c0.46,0,0.8,0.18,1.01,0.54c0.33,0.61,0.62,1.01,0.84,1.19c0.38,0.03,0.73-0.41,1.04-1.31c0.26-0.69,0.38-1.17,0.38-1.42
		c0-1.33-0.56-2-1.69-2c-1.15,0-2.52,0.88-4.11,2.65c-1.59,1.77-2.38,3.21-2.38,4.34c0,0.62,0.35,1.24,1.06,1.86
		c0.71,0.63,1.39,0.96,2.06,1.02c-1.05,0.51-1.8,1.04-2.26,1.57c-0.31,0.49-0.61,0.95-0.88,1.4c-0.28,0.45-0.42,0.8-0.42,1.05
		c0,0.23,0.11,0.35,0.35,0.35c0.28,0,0.62-0.17,1.03-0.5c1.56-1.31,3.53-2.56,5.91-3.76c2.17-1.13,3.56-1.98,4.14-2.57
		c0.69-0.69,1.04-1.54,1.04-2.54C319.47,342.22,319.39,342.14,319.24,342.16z M342.08,328.7c0.54,0.63,1.25,1.2,1.61,1.95
		c1.1,2.2,2.03,4.48,3.07,6.71c0.47,1,1.03,1.96,1.56,2.94c0.2-0.07,0.4-0.14,0.6-0.21c0.21-0.7,0.5-1.39,0.61-2.1
		c0.38-2.45,0.62-4.92,1.08-7.35c0.44-2.31,0.91-4.63,1.71-6.83c0.62-1.73,2.11-1.86,3.43-0.57c0.55,0.54,1.03,1.15,1.84,2.08
		c0.35-1.36,0.64-2.27,0.8-3.21c0.25-1.53-1.19-3.3-3.17-3.98c-1.68-0.58-2.81-0.19-3.7,1.55c-0.57,1.12-1.04,2.33-1.29,3.55
		c-0.71,3.43-1.29,6.9-2.01,10.85c-0.62-1.37-1.05-2.35-1.51-3.31c-1.47-3.09-3.08-6.09-5.77-8.3c-1.16-0.95-2.75-2.03-4.02-0.95
		c-0.81,0.69-0.97,2.47-0.95,3.76C336,327.41,340.06,329.65,342.08,328.7z M299.49,401.8c-0.49,0.5-1.25,1.05-1.86,1.02
		c-0.5-0.02-1.17-0.77-1.41-1.35c-0.33-0.79-0.52-1.74-0.4-2.57c0.67-4.43,1.46-8.83,2.2-13.25c0.11-0.62,0.26-1.23,0.4-1.85
		c-0.16-0.07-0.31-0.14-0.47-0.21c-0.51,0.97-1.22,1.89-1.49,2.93c-0.86,3.34-1.68,6.7-2.26,10.1c-0.5,2.94-0.47,5.92,1.11,8.63
		c0.9,1.54,2.09,1.84,3.58,0.92c1.49-0.91,2.45-4.42,1.59-6.31C300.13,400.59,299.95,401.33,299.49,401.8z M148.17,361.84
		c1.42,2.23,1.1,2.73-1.38,3.68c-0.33,0.12-0.66,0.26-1,0.36c-5.11,1.55-8.94-1.56-8.27-6.68c0.02-0.18-0.08-0.39-0.13-0.58
		c-0.16-0.07-0.31-0.14-0.47-0.22c-1.17,1.7-2.57,3.3-3.48,5.13c-2.4,4.88-11.17,6.18-15,2.68c-1.66-1.52-3.06-3.39-4.38-5.24
		c-2.29-3.2-3.82-3.49-6.92-1.05c-0.37,0.29-0.7,0.63-1.03,0.96c-3.54,3.5-5.54,7.94-7.62,12.36c-1.27,2.69-2.77,5.31-4.48,7.74
		c-1.59,2.26-3.96,2.42-5.87,0.39c-1.32-1.41-2.42-3.19-3.1-5c-1.49-3.97-0.86-8.1-0.37-12.19c0.06-0.5,0.01-1.01,0.01-1.52
		c-0.25-0.04-0.5-0.07-0.75-0.1c-0.45,2.08-1.03,4.15-1.33,6.25c-0.74,5.12-0.43,10.09,2.63,14.54c1.55,2.26,3.17,4.67,6.28,4.43
		c3.16-0.24,4.58-2.82,5.75-5.37c1.17-2.56,2.14-5.2,3.28-7.78c1.36-3.08,2.89-6.07,5.72-8.1c2.3-1.66,3.82-1.51,5.73,0.5
		c1.33,1.41,2.52,2.95,3.89,4.33c2.44,2.45,5.34,3.7,8.88,3.19c3.51-0.5,5.94-2.62,8.05-5.25c0.74-0.93,1.39-1.92,2.24-3.08
		c0.29,1.01,0.31,1.87,0.74,2.42c1.01,1.29,2.01,2.86,3.4,3.56c3.21,1.63,9.06-0.23,10.71-3.42c0.9-1.76,1.33-3.89,1.46-5.89
		c0.21-3.2-0.52-6.26-2.93-9.3C147.81,356.69,146.43,359.1,148.17,361.84z M108.37,338.6c-2.34-1.35-4.5-2.61-6.72-3.9
		c-1.11,2.03-2.15,3.91-3.25,5.93c2.31,1.36,4.51,2.66,6.8,4.02c0.96-1.69,1.87-3.3,2.82-4.97c2.3,1.34,4.47,2.6,6.75,3.92
		c1.1-2,2.16-3.91,3.24-5.87c-2.37-1.39-4.54-2.67-6.77-3.98C110.24,335.42,109.31,337,108.37,338.6z M127.7,390.52
		c-2.26-1.32-4.43-2.58-6.73-3.91c-1.11,2.02-2.17,3.93-3.27,5.94c2.35,1.36,4.53,2.6,6.81,3.92c0.96-1.66,1.86-3.22,2.82-4.88
		c2.28,1.33,4.47,2.6,6.73,3.92c1.14-2.03,2.18-3.9,3.28-5.85c-2.35-1.38-4.55-2.68-6.81-4.01
		C129.55,387.32,128.65,388.87,127.7,390.52z M135.86,340.62c2.34,1.39,4.54,2.68,6.82,4.03c1.11-2.01,2.16-3.9,3.28-5.94
		c-2.25-1.33-4.45-2.63-6.83-4.04C137.99,336.75,136.95,338.63,135.86,340.62z M223.7,391.6c2.36,1.36,4.53,2.6,6.84,3.92
		c1.12-2.01,2.16-3.87,3.27-5.84c-2.28-1.35-4.44-2.63-6.83-4.04C225.88,387.64,224.81,389.59,223.7,391.6z M198.5,308.63l0.21-2.74
		c-5.67,2.72-10.09,4.89-13.23,6.52c-7.89,4.25-13.54,7.33-16.96,9.25l-0.25,2.69c7.16-4.08,12.81-7.16,16.96-9.25
		C191.36,312.08,195.79,309.93,198.5,308.63z M216.03,329.08c1.46,0,4.37-2,8.74-6c4.36-3.99,7.24-7.27,8.63-9.82
		c1.56,0.76,2.6,1.25,3.13,1.45c0.33,0.13,0.63-0.16,0.9-0.87c0.27-0.71,0.3-1.37,0.1-1.97c-0.97-0.86-1.86-1.51-2.69-1.94
		c0.46-1.19,0.7-2.32,0.7-3.38c0-2.65-1.11-3.98-3.33-3.98c-0.77,0-1.68,0.71-2.74,2.14c-1.06,1.43-1.58,2.51-1.58,3.24
		c0,1.29,0.41,2.31,1.24,3.03c0.93,0.57,1.84,1.13,2.74,1.69c-0.93,2.02-3.67,5.02-8.21,9c-2.75,2.35-5.49,4.71-8.21,7.06
		C215.53,328.96,215.73,329.08,216.03,329.08z M230.51,306.99c0.1-0.76,0.56-1.14,1.39-1.14c1.06,0,1.59,0.86,1.59,2.59
		c0,0.4-0.05,0.78-0.15,1.14C231.35,308.52,230.4,307.66,230.51,306.99z M195.8,328.86c-1.11-0.91-2.61-1.92-3.82-0.9
		c-0.77,0.66-0.91,2.34-0.9,3.57c0.03,2.03,3.88,4.15,5.79,3.25c0.51,0.6,1.19,1.14,1.54,1.85c1.04,2.09,1.93,4.25,2.92,6.37
		c0.45,0.95,0.98,1.86,1.48,2.79c0.19-0.06,0.38-0.13,0.57-0.2c0.19-0.66,0.47-1.32,0.57-1.99c0.37-2.32,0.59-4.67,1.03-6.98
		c0.41-2.19,0.86-4.4,1.62-6.49c0.59-1.64,2-1.77,3.26-0.54c0.53,0.51,0.97,1.1,1.75,1.98c0.33-1.3,0.61-2.16,0.76-3.05
		c0.25-1.45-1.13-3.13-3.01-3.78c-1.6-0.56-2.67-0.18-3.51,1.47c-0.54,1.06-0.98,2.21-1.22,3.37c-0.68,3.26-1.22,6.55-1.91,10.3
		c-0.59-1.29-1-2.23-1.43-3.14C199.89,333.81,198.36,330.96,195.8,328.86z M156.39,395.24c-0.44,0.45-1.12,0.94-1.67,0.92
		c-0.46-0.02-1.06-0.7-1.27-1.21c-0.29-0.71-0.47-1.57-0.35-2.32c0.6-3.99,1.3-7.96,1.99-11.94c0.09-0.56,0.23-1.11,0.35-1.66
		c-0.14-0.07-0.28-0.13-0.42-0.19c-0.46,0.88-1.1,1.71-1.34,2.64c-0.77,3.01-1.51,6.04-2.04,9.1c-0.45,2.65-0.42,5.33,1,7.78
		c0.8,1.39,1.88,1.65,3.22,0.83c1.34-0.82,2.2-3.99,1.43-5.69C156.96,394.16,156.8,394.82,156.39,395.24z M107.59,318.14
		c0.35,0.15,0.67,0.32,1.02,0.45c1.33,0.54,2.78,1.05,3.96-0.1c1.19-1.17,0.78-2.69,0.39-4.11c-0.04-0.13-0.11-0.26-0.16-0.39
		c-1.15-2.63-3.27-4.31-5.68-5.66c-1.43-0.8-2.66-0.15-2.29,1.4c0.38,1.55-0.44,2.56-0.81,3.78c-0.75,2.48-0.55,2.99,1.98,4.08
		c-2.75,3.09-6.06,5.23-9.4,7.32c-3.36,2.1-6.81,4.06-10.22,6.08c0.08,0.13,0.16,0.26,0.24,0.4
		C94.31,328.14,101.87,324.71,107.59,318.14z M109.48,313.23c0.49,0.3,1.08,0.52,1.44,0.93c0.58,0.66,1.69,1.43,0.89,2.3
		c-0.3,0.33-1.74-0.35-2.63-0.65c-0.22-0.07-0.32-0.49-0.54-0.86C108.93,314.35,109.2,313.79,109.48,313.23z M105.11,314.13
		c-0.04-0.19-0.09-0.38-0.13-0.56c0.63-0.46,1.24-1.21,1.9-1.26c0.45-0.03,1.14,0.86,1.42,1.47c0.43,0.94-0.21,1.57-1.19,1.25
		C106.42,314.8,105.77,314.43,105.11,314.13z M125.44,319.42c0.37,1.79,0.4,3.72,1.1,5.36c1.12,2.59,4.03,2.65,5.62,0.33
		c0.3-0.44,0.59-0.9,0.96-1.48c0.41,0.54,0.64,0.94,0.96,1.25c0.97,0.94,2.12,1.51,3.48,1.1c1.22-0.36,1.73-1.38,1.86-2.58
		c0.06-0.61,0.24-1.28,0.06-1.82c-0.86-2.63-1.83-5.22-2.87-8.14c-0.73,1.57-1.22,2.77-0.47,4.19c0.59,1.13,1.08,2.33,1.44,3.55
		c0.17,0.59-0.06,1.29-0.11,1.95c-0.72-0.1-1.6,0.01-2.12-0.36c-0.59-0.44-1.02-1.27-1.24-2.01c-0.26-0.92-0.21-1.92-0.32-2.89
		c-0.16-1.38-0.26-2.78-1.51-3.83c-0.26,1.07-0.33,2.1-0.25,3.13c0.1,1.32,0.43,2.64,0.43,3.96c0.01,1.54-1.38,2.77-2.91,2.8
		c-1.39,0.04-2.08-0.67-2.24-2.53c-0.13-1.58-0.11-3.17-0.23-4.75c-0.06-0.69-0.33-1.37-0.5-2.05c-0.17-0.01-0.33-0.02-0.49-0.02
		c-0.4,0.68-0.84,1.35-1.17,2.07c-0.15,0.31-0.12,0.76-0.04,1.11C125,318.31,125.32,318.85,125.44,319.42z M264.63,298.74
		c1.31,13.33,2.69,26.66,3.79,40.02c0.94,11.49,1.56,23,2.31,34.5c0.1,1.58,0.11,3.16,0.16,4.74c0.16,0.02,0.34,0.04,0.5,0.06
		c0.17-0.18,0.39-0.35,0.49-0.56c0.23-0.46,0.42-0.94,0.6-1.42c1.92-5.14,2.87-10.49,2.41-15.94c-1.34-15.86-2.84-31.69-4.31-47.53
		c-0.32-3.43-0.75-6.86-1.18-10.75c1.59,1.65,2.84,2.95,4.09,4.25c0.26-0.18,0.52-0.35,0.78-0.53c-2.3-6.05-4.6-12.09-6.9-18.13
		c-0.23,0.05-0.46,0.09-0.7,0.13c-1.01,2.15-2.04,4.29-3,6.46c-0.15,0.35-0.07,0.85,0.02,1.25
		C263.98,296.46,264.52,297.58,264.63,298.74z"/>
	<path class="st1" d="M181.23,424.56h-14.27v0.32c0.35,0,0.62,0.02,0.82,0.05c0.21,0.03,0.36,0.1,0.45,0.21
		c0.1,0.11,0.16,0.27,0.19,0.48c0.03,0.22,0.05,0.5,0.05,0.84v18.05c0,0.36-0.02,0.65-0.05,0.85c-0.03,0.21-0.1,0.36-0.21,0.47
		c-0.11,0.11-0.26,0.18-0.47,0.21c-0.2,0.03-0.48,0.05-0.83,0.05v0.32h5.94v-0.32c-0.37,0-0.65-0.02-0.85-0.05
		c-0.21-0.03-0.36-0.1-0.47-0.21c-0.1-0.11-0.18-0.26-0.21-0.47c-0.03-0.21-0.04-0.49-0.04-0.85l-0.03-8.69h6.19
		c0.73,0,1.26,0.09,1.57,0.27c0.31,0.18,0.5,0.65,0.57,1.4h0.42v-4.84h-0.42c-0.05,0.37-0.11,0.66-0.21,0.87
		c-0.1,0.22-0.22,0.38-0.39,0.48c-0.16,0.11-0.37,0.18-0.63,0.21c-0.26,0.03-0.56,0.05-0.91,0.05h-6.16v-7.42
		c0-0.35,0.03-0.56,0.08-0.63c0.06-0.08,0.27-0.11,0.63-0.11h6.33c0.38,0,0.72,0.02,1,0.05c0.28,0.03,0.51,0.11,0.71,0.23
		c0.19,0.12,0.35,0.29,0.49,0.53c0.13,0.24,0.23,0.56,0.29,0.97h0.45L181.23,424.56z M201.47,445.02l-8.58-20.69h-1.78l-8.26,19.85
		c-0.08,0.21-0.18,0.43-0.27,0.65c-0.1,0.21-0.21,0.41-0.36,0.58c-0.14,0.17-0.3,0.32-0.49,0.45c-0.18,0.13-0.4,0.2-0.66,0.22v0.32
		h4.52v-0.32c-0.69,0-1.08-0.15-1.17-0.45c-0.1-0.3-0.03-0.73,0.21-1.29l1.81-4.52h9.71l2,4.91c0.23,0.54,0.23,0.9,0,1.08
		c-0.24,0.18-0.61,0.28-1.1,0.28v0.32h5.81v-0.32C202.17,445.95,201.7,445.6,201.47,445.02z M187.07,438.27l4.26-10.53l4.26,10.53
		H187.07z M206.76,424.88c0.37,0,0.66,0.01,0.89,0.03c0.23,0.02,0.41,0.08,0.54,0.18c0.13,0.1,0.21,0.25,0.26,0.47
		c0.04,0.22,0.06,0.52,0.06,0.9v18.05c0,0.39-0.02,0.69-0.06,0.9c-0.04,0.21-0.13,0.37-0.26,0.47c-0.13,0.1-0.31,0.16-0.54,0.18
		c-0.23,0.02-0.52,0.03-0.89,0.03v0.32h6.26v-0.32c-0.37,0-0.67-0.01-0.89-0.03c-0.22-0.02-0.4-0.08-0.53-0.18
		c-0.13-0.1-0.22-0.25-0.26-0.47c-0.04-0.22-0.06-0.52-0.06-0.9v-18.05c0-0.39,0.02-0.69,0.06-0.9c0.04-0.21,0.13-0.37,0.26-0.47
		c0.13-0.1,0.31-0.16,0.53-0.18c0.22-0.02,0.52-0.03,0.89-0.03v-0.32h-6.26V424.88z M234.39,442.47H234
		c-0.21,0.8-0.52,1.39-0.94,1.79c-0.4,0.4-1.04,0.6-1.9,0.6h-10.29l13.04-19.14v-1.16h-15.59l-0.35,3.9h0.45
		c0.15-0.92,0.44-1.55,0.87-1.87c0.43-0.32,1.1-0.48,2-0.48h9.33l-13.17,19.17v1.13h16.52L234.39,442.47z M265.41,438.76v-12.1
		c0-0.3,0.04-0.58,0.1-0.84c0.06-0.26,0.18-0.48,0.35-0.66c0.17-0.18,0.42-0.28,0.74-0.28h0.48v-0.32h-5.13v0.32
		c0.45,0,0.8,0.06,1.03,0.18c0.23,0.12,0.4,0.29,0.5,0.5c0.1,0.22,0.15,0.49,0.15,0.81v12.82c0,1.88-0.52,3.35-1.56,4.44
		c-1.04,1.08-2.5,1.62-4.39,1.62c-2.06,0-3.55-0.58-4.46-1.73c-0.91-1.15-1.37-2.73-1.37-4.71v-12.33c0-0.37,0.02-0.66,0.07-0.88
		c0.04-0.22,0.12-0.38,0.23-0.48c0.12-0.11,0.28-0.17,0.49-0.19c0.2-0.02,0.48-0.03,0.82-0.03v-0.32h-6.04v0.32h0.49
		c0.56,0,0.89,0.14,0.99,0.43c0.11,0.29,0.17,0.67,0.17,1.15v12.23c0,2.6,0.71,4.6,2.13,6c1.42,1.4,3.43,2.1,6.04,2.1
		c2.58,0,4.59-0.69,6.02-2.07C264.69,443.35,265.41,441.36,265.41,438.76z M287.52,442.5l-0.42-0.1c-0.26,0.56-0.52,1.01-0.79,1.34
		c-0.27,0.34-0.57,0.58-0.92,0.74c-0.35,0.16-0.74,0.26-1.2,0.31c-0.45,0.04-0.97,0.06-1.55,0.06h-4.71c-0.13,0-0.28,0-0.47,0.01
		c-0.18,0.01-0.35,0.01-0.51-0.01c-0.16-0.02-0.3-0.08-0.42-0.18c-0.12-0.1-0.18-0.24-0.18-0.43v-17.79c0-0.37,0.02-0.65,0.06-0.85
		c0.05-0.21,0.13-0.36,0.24-0.47c0.12-0.11,0.29-0.18,0.5-0.21c0.21-0.03,0.5-0.05,0.84-0.05v-0.32h-5.97v0.32
		c0.35,0,0.62,0.02,0.82,0.05c0.21,0.03,0.36,0.1,0.47,0.21c0.11,0.11,0.18,0.27,0.21,0.48c0.03,0.22,0.05,0.5,0.05,0.84v18.05
		c0,0.36-0.02,0.65-0.05,0.85c-0.03,0.21-0.1,0.36-0.21,0.47c-0.11,0.11-0.26,0.18-0.47,0.21c-0.2,0.03-0.48,0.05-0.82,0.05v0.32
		h14.59L287.52,442.5z M313.23,442.43l-7.85-17.88h-5.04v0.32c0.35,0,0.63,0.01,0.86,0.03c0.23,0.02,0.4,0.08,0.53,0.18
		c0.13,0.1,0.22,0.25,0.28,0.47c0.05,0.22,0.08,0.52,0.08,0.9v17.2c0,0.43-0.01,0.8-0.02,1.1c-0.01,0.3-0.06,0.55-0.16,0.74
		c-0.1,0.19-0.27,0.34-0.52,0.44c-0.25,0.1-0.6,0.15-1.05,0.15v0.32h5.2v-0.32c-0.45,0-0.79-0.05-1.02-0.15
		c-0.22-0.1-0.39-0.25-0.49-0.45c-0.1-0.2-0.15-0.46-0.16-0.76c-0.01-0.3-0.02-0.66-0.02-1.06v-16.17l8.26,18.91h1.1l8.26-19.33
		v17.43c0,0.36-0.02,0.65-0.07,0.85c-0.04,0.21-0.13,0.36-0.24,0.47c-0.12,0.11-0.29,0.18-0.5,0.21c-0.22,0.03-0.49,0.05-0.84,0.05
		v0.32h5.97v-0.32c-0.35,0-0.62-0.02-0.83-0.05c-0.2-0.03-0.36-0.1-0.47-0.21c-0.11-0.11-0.18-0.26-0.21-0.47
		c-0.04-0.21-0.05-0.49-0.05-0.85v-18.05c0-0.34,0.01-0.62,0.05-0.84c0.03-0.21,0.1-0.37,0.21-0.48c0.11-0.11,0.26-0.18,0.47-0.21
		c0.21-0.03,0.48-0.05,0.83-0.05v-0.32h-4.95L313.23,442.43z M350.42,445.02l-8.58-20.69h-1.78l-8.26,19.85
		c-0.09,0.21-0.18,0.43-0.28,0.65c-0.1,0.21-0.21,0.41-0.35,0.58c-0.14,0.17-0.3,0.32-0.49,0.45c-0.18,0.13-0.41,0.2-0.66,0.22v0.32
		h4.52v-0.32c-0.69,0-1.08-0.15-1.18-0.45c-0.1-0.3-0.03-0.73,0.21-1.29l1.8-4.52h9.72l2,4.91c0.23,0.54,0.23,0.9,0,1.08
		c-0.24,0.18-0.6,0.28-1.1,0.28v0.32h5.81v-0.32C351.12,445.95,350.66,445.6,350.42,445.02z M336.02,438.27l4.27-10.53l4.26,10.53
		H336.02z M370.14,446.63h1.42c1.06-3.46,2.12-6.9,3.21-10.31c1.09-3.41,2.22-6.83,3.41-10.25c0.15-0.41,0.32-0.7,0.51-0.87
		c0.19-0.17,0.5-0.28,0.93-0.32v-0.32h-4.49v0.32c0.64,0.05,1.03,0.22,1.16,0.52c0.13,0.3,0.11,0.73-0.06,1.29l-5,15.46l-5.3-16.14
		c-0.08-0.26-0.1-0.46-0.05-0.59c0.06-0.14,0.15-0.25,0.28-0.34c0.13-0.08,0.29-0.14,0.49-0.16c0.19-0.02,0.39-0.03,0.58-0.03v-0.32
		h-5.94v0.32c0.37,0,0.66,0.05,0.88,0.14c0.23,0.1,0.43,0.33,0.6,0.69l1.04,2.32l-4.49,13.98l-5.16-16.04
		c-0.17-0.5-0.14-0.8,0.08-0.92c0.23-0.12,0.55-0.18,0.98-0.18v-0.32h-5.36v0.32c0.52,0.02,0.89,0.2,1.13,0.53
		c0.23,0.33,0.43,0.71,0.58,1.14l6.49,20.08h1.42l5.3-16.46L370.14,446.63z M378.55,444.82c-0.1,0.21-0.21,0.41-0.35,0.58
		c-0.14,0.17-0.3,0.32-0.49,0.45c-0.18,0.13-0.4,0.2-0.66,0.22v0.32h4.51v-0.32c-0.69,0-1.08-0.15-1.17-0.45
		c-0.1-0.3-0.03-0.73,0.21-1.29l1.8-4.52h9.71l2,4.91c0.23,0.54,0.23,0.9,0,1.08c-0.24,0.18-0.61,0.28-1.1,0.28v0.32h5.81v-0.32
		c-0.69-0.13-1.15-0.48-1.39-1.06l-8.58-20.69h-1.78l-8.26,19.85C378.74,444.39,378.65,444.61,378.55,444.82z M387.31,427.75
		l4.26,10.53h-8.52L387.31,427.75z M409,446.08c-0.37,0-0.66-0.01-0.89-0.03c-0.22-0.02-0.4-0.08-0.53-0.18
		c-0.13-0.1-0.22-0.25-0.26-0.47c-0.04-0.22-0.06-0.52-0.06-0.9v-18.05c0-0.39,0.02-0.69,0.06-0.9c0.04-0.21,0.14-0.37,0.26-0.47
		c0.13-0.1,0.31-0.16,0.53-0.18c0.23-0.02,0.52-0.03,0.89-0.03v-0.32h-6.27v0.32c0.37,0,0.67,0.01,0.89,0.03
		c0.23,0.02,0.41,0.08,0.53,0.18c0.13,0.1,0.22,0.25,0.26,0.47c0.05,0.22,0.06,0.52,0.06,0.9v18.05c0,0.39-0.02,0.69-0.06,0.9
		c-0.04,0.21-0.13,0.37-0.26,0.47c-0.13,0.1-0.3,0.16-0.53,0.18c-0.22,0.02-0.52,0.03-0.89,0.03v0.32H409V446.08z M432.56,430.66
		c-0.57-1.38-1.39-2.52-2.44-3.42c-1.05-0.91-2.31-1.58-3.78-2.02c-1.47-0.44-3.09-0.66-4.87-0.66H414v0.32
		c0.32,0,0.59,0.01,0.81,0.03c0.22,0.02,0.38,0.09,0.48,0.19c0.11,0.11,0.19,0.27,0.23,0.48c0.04,0.22,0.06,0.51,0.06,0.87v18.05
		c0,0.36-0.02,0.65-0.06,0.87c-0.04,0.21-0.11,0.37-0.23,0.48c-0.11,0.1-0.27,0.17-0.48,0.19c-0.21,0.02-0.48,0.03-0.81,0.03v0.32
		h7.21c1.61,0,3.19-0.21,4.73-0.61c1.54-0.41,2.94-1.15,4.18-2.23c1.22-1.05,2.08-2.27,2.57-3.63c0.49-1.37,0.74-2.83,0.74-4.4
		C433.43,433.66,433.14,432.03,432.56,430.66z M429.92,439.73c-0.5,1.19-1.19,2.17-2.09,2.93c-0.91,0.76-2,1.32-3.28,1.67
		c-1.29,0.35-2.71,0.53-4.28,0.53c-0.1,0-0.27,0-0.48-0.02c-0.21-0.01-0.43-0.04-0.64-0.1c-0.22-0.05-0.4-0.13-0.54-0.24
		c-0.15-0.11-0.23-0.26-0.23-0.45v-17.37c0.32-0.26,0.69-0.42,1.1-0.48c0.4-0.06,0.8-0.1,1.19-0.1c1.53,0,2.9,0.19,4.14,0.56
		c1.23,0.38,2.28,0.95,3.16,1.72c0.87,0.77,1.54,1.74,2.01,2.91c0.47,1.17,0.71,2.55,0.71,4.13
		C430.66,437.1,430.41,438.54,429.92,439.73z M173.81,456.15c0.37,0,0.66,0.01,0.89,0.03c0.23,0.02,0.4,0.08,0.54,0.18
		c0.13,0.1,0.21,0.25,0.25,0.47c0.04,0.22,0.06,0.51,0.06,0.9v18.04c0,0.39-0.02,0.69-0.06,0.9c-0.05,0.21-0.13,0.37-0.25,0.47
		c-0.13,0.1-0.31,0.16-0.54,0.18c-0.23,0.02-0.52,0.03-0.89,0.03v0.32h6.26v-0.32c-0.36,0-0.66-0.01-0.89-0.03
		c-0.23-0.02-0.4-0.08-0.53-0.18c-0.13-0.1-0.22-0.25-0.26-0.47c-0.04-0.22-0.06-0.52-0.06-0.9v-18.04c0-0.39,0.02-0.69,0.06-0.9
		c0.04-0.21,0.13-0.37,0.26-0.47c0.13-0.1,0.31-0.16,0.53-0.18c0.23-0.02,0.52-0.03,0.89-0.03v-0.32h-6.26V456.15z M199.35,475.01
		c-0.27,0.34-0.58,0.58-0.92,0.74c-0.34,0.16-0.74,0.27-1.19,0.31c-0.45,0.04-0.97,0.06-1.55,0.06h-4.71c-0.13,0-0.29,0-0.47,0.01
		c-0.18,0.01-0.36,0.01-0.52-0.01c-0.16-0.02-0.3-0.08-0.42-0.18c-0.12-0.1-0.18-0.24-0.18-0.43v-17.79c0-0.37,0.02-0.65,0.07-0.85
		c0.04-0.21,0.12-0.36,0.24-0.47c0.12-0.11,0.28-0.18,0.5-0.21c0.22-0.03,0.49-0.05,0.84-0.05v-0.32h-5.97v0.32
		c0.35,0,0.62,0.02,0.82,0.05c0.2,0.04,0.36,0.1,0.47,0.21c0.11,0.11,0.17,0.27,0.21,0.48c0.04,0.22,0.05,0.5,0.05,0.84v18.04
		c0,0.36-0.01,0.65-0.05,0.85c-0.04,0.21-0.1,0.36-0.21,0.47c-0.11,0.11-0.27,0.18-0.47,0.21c-0.2,0.03-0.48,0.05-0.82,0.05v0.32
		h14.59l0.91-3.91l-0.42-0.1C199.88,474.23,199.62,474.68,199.35,475.01z M228.03,467.96c-0.48-0.45-1.03-0.82-1.66-1.11
		c-0.63-0.29-1.31-0.5-2.01-0.63c1.35-0.3,2.41-0.82,3.16-1.55c0.75-0.73,1.13-1.81,1.13-3.22c0-1.12-0.23-2.05-0.67-2.78
		c-0.45-0.73-1.04-1.31-1.76-1.73c-0.72-0.42-1.54-0.71-2.47-0.87c-0.93-0.16-1.86-0.24-2.8-0.24h-7.58v0.32
		c0.34,0,0.63,0.01,0.86,0.03c0.23,0.02,0.4,0.08,0.55,0.18c0.14,0.1,0.23,0.25,0.29,0.47c0.06,0.22,0.08,0.51,0.08,0.9v18.04
		c0,0.39-0.03,0.69-0.08,0.9c-0.06,0.21-0.15,0.37-0.28,0.47c-0.13,0.1-0.31,0.16-0.53,0.18c-0.23,0.02-0.51,0.03-0.86,0.03v0.32
		h8.23c0.97,0,1.93-0.1,2.89-0.31c0.96-0.2,1.81-0.55,2.56-1.02c0.76-0.47,1.37-1.09,1.83-1.86c0.46-0.77,0.69-1.72,0.69-2.86
		c0-0.77-0.14-1.47-0.42-2.08C228.89,468.94,228.5,468.41,228.03,467.96z M217.9,457.83c0.13-0.15,0.31-0.26,0.54-0.32
		c0.22-0.06,0.47-0.11,0.73-0.13c0.26-0.02,0.52-0.03,0.77-0.01c0.26,0.01,0.47,0.01,0.65,0.01c0.67,0,1.32,0.06,1.97,0.19
		c0.64,0.13,1.22,0.35,1.71,0.66c0.49,0.31,0.9,0.73,1.21,1.26c0.31,0.53,0.47,1.19,0.47,1.96c0,0.76-0.13,1.39-0.38,1.91
		c-0.26,0.52-0.62,0.94-1.07,1.26c-0.45,0.33-0.98,0.56-1.58,0.7c-0.6,0.14-1.24,0.21-1.9,0.21h-3.1V457.83z M226.08,473.86
		c-0.35,0.57-0.82,1.02-1.4,1.37c-0.58,0.34-1.23,0.58-1.95,0.71c-0.74,0.13-1.46,0.19-2.19,0.19h-0.68c-0.26,0-0.52-0.02-0.77-0.05
		c-0.26-0.04-0.49-0.1-0.71-0.21c-0.21-0.11-0.37-0.27-0.48-0.48v-8.3h1.64c0.79,0,1.61,0.05,2.46,0.16
		c0.85,0.11,1.61,0.32,2.29,0.64c0.67,0.32,1.23,0.78,1.67,1.38c0.44,0.6,0.66,1.41,0.66,2.41
		C226.61,472.57,226.44,473.29,226.08,473.86z M247.69,456.15c0.45,0,0.79,0.06,1.03,0.18c0.24,0.12,0.4,0.29,0.5,0.5
		c0.1,0.22,0.15,0.49,0.15,0.81v12.82c0,1.88-0.52,3.36-1.56,4.44c-1.04,1.08-2.51,1.62-4.39,1.62c-2.06,0-3.54-0.58-4.46-1.73
		c-0.91-1.16-1.37-2.73-1.37-4.71v-12.34c0-0.37,0.02-0.66,0.06-0.88c0.05-0.22,0.13-0.38,0.25-0.48c0.11-0.11,0.28-0.17,0.48-0.19
		c0.2-0.02,0.48-0.04,0.82-0.04v-0.32h-6.04v0.32h0.49c0.56,0,0.9,0.15,1,0.44c0.11,0.29,0.16,0.67,0.16,1.15v12.23
		c0,2.61,0.71,4.61,2.13,6.01c1.42,1.4,3.43,2.1,6.04,2.1c2.58,0,4.58-0.69,6.02-2.07c1.43-1.38,2.15-3.37,2.15-5.97v-12.11
		c0-0.3,0.03-0.58,0.09-0.84c0.07-0.26,0.18-0.48,0.36-0.66c0.17-0.18,0.42-0.28,0.74-0.28h0.48v-0.32h-5.13V456.15z M274.77,476.74
		c-0.29-0.41-0.59-0.91-0.92-1.5c-0.34-0.59-0.7-1.23-1.08-1.91c-0.38-0.68-0.8-1.28-1.23-1.82c-0.39-0.47-0.72-0.89-1.01-1.24
		c-0.28-0.36-0.56-0.7-0.85-1.03c-0.29-0.34-0.63-0.68-1.02-1.05c-0.38-0.37-0.89-0.81-1.51-1.32c0.74-0.11,1.43-0.29,2.09-0.55
		c0.67-0.26,1.26-0.6,1.78-1.02c0.52-0.42,0.93-0.94,1.23-1.55c0.3-0.61,0.45-1.33,0.45-2.14c0-1.08-0.2-1.98-0.6-2.71
		c-0.4-0.73-0.93-1.32-1.6-1.77c-0.67-0.45-1.44-0.78-2.31-0.98c-0.87-0.21-1.78-0.31-2.73-0.31h-7.71v0.32
		c0.33,0,0.59,0.02,0.79,0.05c0.21,0.04,0.36,0.1,0.47,0.21c0.11,0.11,0.17,0.27,0.21,0.48c0.03,0.22,0.04,0.5,0.04,0.84v18.04
		c0,0.36-0.01,0.65-0.04,0.85c-0.04,0.21-0.11,0.36-0.21,0.47c-0.11,0.11-0.26,0.18-0.47,0.21c-0.2,0.03-0.46,0.05-0.79,0.05v0.32
		h5.87v-0.32c-0.35,0-0.63-0.01-0.84-0.03c-0.21-0.02-0.38-0.09-0.48-0.2c-0.11-0.11-0.18-0.27-0.22-0.48
		c-0.04-0.22-0.07-0.51-0.07-0.87v-8.3l2.32-0.03c0.91,0.8,1.71,1.56,2.42,2.29c0.71,0.73,1.37,1.5,1.97,2.29
		c0.6,0.8,1.16,1.65,1.68,2.56c0.52,0.92,1.03,1.94,1.56,3.08h3.61v-0.32C275.32,477.35,275.05,477.15,274.77,476.74z
		 M265.84,465.71c-0.74,0.14-1.5,0.21-2.27,0.21h-1.55v-8.04c0.13-0.15,0.3-0.27,0.5-0.35c0.2-0.08,0.42-0.14,0.66-0.16
		c0.24-0.02,0.47-0.04,0.68-0.04h0.64c0.67,0,1.32,0.06,1.97,0.16c0.65,0.11,1.22,0.31,1.73,0.6c0.5,0.29,0.91,0.69,1.21,1.21
		c0.3,0.52,0.45,1.17,0.45,1.97c0,0.91-0.18,1.66-0.55,2.26c-0.37,0.6-0.85,1.08-1.45,1.43
		C267.25,465.33,266.59,465.58,265.84,465.71z M293.39,456.15c0.35,0,0.62,0.02,0.84,0.05c0.22,0.04,0.37,0.1,0.49,0.21
		c0.1,0.11,0.18,0.26,0.22,0.47c0.04,0.2,0.06,0.49,0.06,0.85v7.94h-10.52v-7.94c0-0.34,0.02-0.62,0.05-0.84
		c0.03-0.21,0.1-0.38,0.21-0.48c0.11-0.11,0.26-0.18,0.47-0.21c0.21-0.03,0.48-0.05,0.83-0.05v-0.32h-5.94v0.32
		c0.34,0,0.62,0.02,0.84,0.05c0.22,0.04,0.38,0.1,0.49,0.21c0.1,0.11,0.18,0.26,0.22,0.47c0.05,0.2,0.07,0.49,0.07,0.85v18.04
		c0,0.36-0.02,0.65-0.07,0.85c-0.04,0.21-0.12,0.36-0.22,0.47c-0.11,0.11-0.27,0.18-0.49,0.21c-0.21,0.03-0.5,0.05-0.84,0.05v0.32
		h5.94v-0.32c-0.35,0-0.62-0.02-0.83-0.05c-0.2-0.03-0.36-0.1-0.47-0.21c-0.11-0.11-0.18-0.26-0.21-0.47
		c-0.04-0.2-0.05-0.49-0.05-0.85v-8.46h10.52v8.46c0,0.36-0.02,0.65-0.06,0.85c-0.04,0.21-0.12,0.36-0.22,0.47
		c-0.11,0.11-0.27,0.18-0.49,0.21c-0.22,0.03-0.5,0.05-0.84,0.05v0.32h5.97v-0.32c-0.35,0-0.62-0.02-0.83-0.05
		c-0.2-0.03-0.37-0.1-0.48-0.21c-0.12-0.11-0.19-0.26-0.23-0.47c-0.03-0.2-0.05-0.49-0.05-0.85v-18.04c0-0.34,0.01-0.62,0.05-0.84
		c0.04-0.21,0.11-0.38,0.23-0.48c0.12-0.11,0.28-0.18,0.48-0.21c0.2-0.03,0.48-0.05,0.83-0.05v-0.32h-5.97V456.15z M323.96,476.29
		l-8.58-20.69h-1.78l-8.26,19.85c-0.09,0.21-0.18,0.43-0.28,0.65c-0.1,0.21-0.21,0.41-0.35,0.58c-0.14,0.17-0.3,0.32-0.49,0.45
		c-0.18,0.13-0.4,0.2-0.66,0.23v0.32h4.52v-0.32c-0.69,0-1.08-0.15-1.18-0.45c-0.1-0.3-0.03-0.73,0.21-1.29l1.8-4.52h9.72l2,4.91
		c0.24,0.54,0.24,0.9,0,1.08c-0.24,0.18-0.6,0.28-1.1,0.28v0.32h5.81v-0.32C324.66,477.22,324.2,476.87,323.96,476.29z
		 M309.56,469.54l4.27-10.52l4.26,10.52H309.56z M342.8,456.15c0.45,0,0.8,0.05,1.05,0.13c0.25,0.08,0.42,0.23,0.52,0.42
		c0.09,0.19,0.15,0.44,0.16,0.74c0.01,0.3,0.02,0.67,0.02,1.1v14.91c-1.98-2.99-3.99-5.93-6.03-8.81s-4.06-5.82-6.04-8.81h-4.26
		v0.32c0.33,0,0.57,0.02,0.73,0.05c0.16,0.04,0.29,0.1,0.4,0.19c0.11,0.1,0.21,0.24,0.29,0.42c0.09,0.18,0.2,0.41,0.32,0.69v17.53
		c0,0.43,0,0.79-0.02,1.08c-0.01,0.29-0.06,0.53-0.18,0.71c-0.11,0.18-0.28,0.32-0.51,0.4c-0.24,0.09-0.58,0.13-1.03,0.13v0.32h5.19
		v-0.32c-0.43,0-0.76-0.04-1-0.13c-0.24-0.09-0.4-0.22-0.5-0.42c-0.1-0.19-0.15-0.44-0.16-0.73c-0.01-0.29-0.02-0.64-0.02-1.05
		v-15.72l12.94,18.53h1.65v-19.3c0-0.41,0.01-0.76,0.02-1.06c0.01-0.3,0.06-0.55,0.16-0.74c0.1-0.19,0.26-0.34,0.5-0.43
		c0.23-0.1,0.58-0.15,1.03-0.15v-0.32h-5.23V456.15z M352.97,456.15c0.37,0,0.66,0.01,0.89,0.03c0.23,0.02,0.41,0.08,0.53,0.18
		c0.13,0.1,0.22,0.25,0.26,0.47c0.04,0.22,0.06,0.51,0.06,0.9v18.04c0,0.39-0.02,0.69-0.06,0.9c-0.04,0.21-0.13,0.37-0.26,0.47
		c-0.13,0.1-0.3,0.16-0.53,0.18c-0.22,0.02-0.52,0.03-0.89,0.03v0.32h6.26v-0.32c-0.36,0-0.66-0.01-0.88-0.03
		c-0.22-0.02-0.4-0.08-0.53-0.18c-0.13-0.1-0.22-0.25-0.26-0.47c-0.04-0.22-0.06-0.52-0.06-0.9v-18.04c0-0.39,0.02-0.69,0.06-0.9
		c0.05-0.21,0.13-0.37,0.26-0.47c0.13-0.1,0.31-0.16,0.53-0.18c0.23-0.02,0.52-0.03,0.88-0.03v-0.32h-6.26V456.15z M375.43,477.14
		c-0.15-0.1-0.25-0.25-0.3-0.47c-0.06-0.22-0.09-0.52-0.09-0.9v-7.78l6.84-10.55c0.47-0.77,1.14-1.21,2-1.29v-0.32h-5.03v0.32
		c0.19,0,0.38,0.02,0.56,0.05c0.18,0.04,0.33,0.1,0.44,0.18c0.11,0.09,0.17,0.21,0.19,0.35c0.02,0.15-0.04,0.35-0.19,0.58
		l-5.72,9.01l-5.8-8.88c-0.2-0.28-0.3-0.5-0.31-0.68c-0.01-0.17,0.04-0.3,0.14-0.39c0.11-0.08,0.26-0.14,0.47-0.18
		c0.2-0.03,0.43-0.05,0.69-0.05v-0.32h-6.1v0.32c0.52,0.02,0.9,0.15,1.13,0.39c0.24,0.24,0.49,0.57,0.78,1l7.13,10.55v7.68
		c0,0.39-0.02,0.69-0.08,0.9c-0.05,0.21-0.15,0.37-0.29,0.47c-0.14,0.1-0.33,0.16-0.57,0.18c-0.24,0.02-0.54,0.03-0.9,0.03v0.32
		h6.49v-0.32c-0.37,0-0.67-0.01-0.91-0.03C375.78,477.3,375.58,477.24,375.43,477.14z M401.96,476.29l-8.58-20.69h-1.78l-8.26,19.85
		c-0.09,0.21-0.18,0.43-0.28,0.65c-0.1,0.21-0.21,0.41-0.35,0.58c-0.14,0.17-0.3,0.32-0.49,0.45c-0.18,0.13-0.4,0.2-0.66,0.23v0.32
		h4.52v-0.32c-0.69,0-1.08-0.15-1.18-0.45c-0.1-0.3-0.03-0.73,0.21-1.29l1.8-4.52h9.72l2,4.91c0.24,0.54,0.24,0.9,0,1.08
		c-0.23,0.18-0.6,0.28-1.09,0.28v0.32h5.81v-0.32C402.66,477.22,402.2,476.87,401.96,476.29z M387.57,469.54l4.26-10.52l4.26,10.52
		H387.57z M420.59,456.15c0.34,0,0.62,0.02,0.84,0.05c0.21,0.04,0.38,0.1,0.48,0.21c0.11,0.11,0.19,0.26,0.23,0.47
		c0.04,0.2,0.06,0.49,0.06,0.85v7.94h-10.52v-7.94c0-0.34,0.01-0.62,0.04-0.84c0.04-0.21,0.11-0.38,0.21-0.48
		c0.11-0.11,0.27-0.18,0.47-0.21c0.2-0.03,0.48-0.05,0.82-0.05v-0.32h-5.94v0.32c0.35,0,0.62,0.02,0.84,0.05
		c0.21,0.04,0.38,0.1,0.48,0.21c0.11,0.11,0.19,0.26,0.23,0.47c0.04,0.2,0.06,0.49,0.06,0.85v18.04c0,0.36-0.02,0.65-0.06,0.85
		c-0.04,0.21-0.12,0.36-0.23,0.47c-0.11,0.11-0.27,0.18-0.48,0.21c-0.22,0.03-0.49,0.05-0.84,0.05v0.32h5.94v-0.32
		c-0.34,0-0.62-0.02-0.82-0.05c-0.21-0.03-0.37-0.1-0.47-0.21c-0.1-0.11-0.17-0.26-0.21-0.47c-0.03-0.2-0.04-0.49-0.04-0.85v-8.46
		h10.52v8.46c0,0.36-0.02,0.65-0.06,0.85c-0.04,0.21-0.12,0.36-0.23,0.47c-0.1,0.11-0.27,0.18-0.48,0.21
		c-0.22,0.03-0.5,0.05-0.84,0.05v0.32h5.97v-0.32c-0.34,0-0.62-0.02-0.82-0.05c-0.2-0.03-0.37-0.1-0.49-0.21
		c-0.12-0.11-0.19-0.26-0.22-0.47c-0.03-0.2-0.05-0.49-0.05-0.85v-18.04c0-0.34,0.02-0.62,0.05-0.84c0.03-0.21,0.11-0.38,0.22-0.48
		c0.12-0.11,0.28-0.18,0.49-0.21c0.2-0.03,0.48-0.05,0.82-0.05v-0.32h-5.97V456.15z"/>
	<path class="st1" d="M544.33,442.83c-0.33-0.28-0.75-0.62-1.22-1.01c0.11-0.12,0.23-0.24,0.32-0.38c0.76-1.18,0.43-2.75-0.74-3.52
		c-4.43-2.88-9.24-4.93-14.28-6.09c-1.36-0.31-2.71,0.54-3.04,1.89c-0.14-0.02-0.28-0.05-0.43-0.08c-0.81-0.12-1.62-0.34-2.47-0.39
		c-1.69-0.12-3.45-0.32-5.26-0.22c-1.82-0.03-3.66,0.22-5.55,0.43c-0.94,0.12-1.88,0.36-2.83,0.55c-0.48,0.11-0.96,0.19-1.43,0.31
		l-1.42,0.43c-1.92,0.51-3.77,1.31-5.66,2.08c-0.91,0.46-1.83,0.93-2.74,1.4c-0.94,0.45-1.77,1.09-2.66,1.62
		c-1.26,0.83-2.46,1.75-3.61,2.7c-0.19-3.04-0.76-5.96-1.69-8.6c-0.73-2.07-1.64-3.98-2.63-5.71c0.74-0.83,0.88-2.07,0.25-3.06
		c-2.5-3.89-5.72-7.27-9.56-10.05c-1.13-0.82-2.73-0.56-3.55,0.57c0,0.01-0.01,0.02-0.01,0.03c-0.11-0.06-0.21-0.12-0.3-0.17
		c-0.71-0.38-1.09-0.59-1.09-0.59s0.35,0.24,1.02,0.71c0.08,0.06,0.19,0.13,0.28,0.19c-0.68,1.12-0.4,2.59,0.67,3.37
		c3.33,2.4,6.1,5.31,8.26,8.67c0.48,0.76,1.3,1.17,2.14,1.17c0.17,0,0.33-0.04,0.5-0.07c0.85,1.69,1.6,3.53,2.22,5.5
		c0.84,2.76,1.27,5.79,1.32,8.91c0,0.35-0.02,0.7-0.03,1.06c-1.25,1.19-2.45,2.43-3.56,3.78c-2.65,3.28-4.91,6.82-6.99,10.33
		c-2.07,3.51-3.97,6.98-6.07,10.15c-2.04,3.22-4.4,6.01-6.81,8.5c-1.3,1.14-2.45,2.39-3.8,3.31c-1.3,0.99-2.53,1.98-3.87,2.72
		c-2.08,1.37-4.17,2.36-6.09,3.29c-1.08,0.44-2.1,0.92-3.08,1.25c-1.19,0.42-2.27,0.83-3.27,1.19c-0.16,0-0.33,0.02-0.49,0.01
		c0,0,30.29-15.46,30.29-46.71c0-23.3-16.68-30.12-24.36-29.02c-11,1.58-11.82,8.9-11.82,11.12c0,2.22,1.55,6.14,5.15,6.14
		c4.66,0,4.56-4.34,4.56-4.34s-0.52,2.06-2.74,2.06c-2.09,0-3.69-2.19-3.69-5.41c0-3.19,1.89-7.31,8.3-7.31
		c6.75,0,19.79,6.16,19.79,27.03c0,25.95-24.28,51.6-54.55,51.6c43.69,3.95,82.67-30.47,100.56-30.47c11.54,0,13.66,6.14,13.66,8.47
		c0,3.18-2.43,6.14-6.46,4.02c0,0,0.88,2.49,3.92,2.97c3.02,0.47,6.25-2.12,6.25-7.09c0-2.65-2.02-13.14-17.58-13.14
		c-18.42,0-47.03,26.57-67.2,29.76c1.02-0.25,2.06-0.64,3.19-1c1.12-0.38,2.33-0.73,3.53-1.25c1.21-0.48,2.47-0.99,3.78-1.52
		c1.27-0.6,2.59-1.22,3.95-1.87c1.32-0.72,2.68-1.46,4.06-2.22c1.34-0.85,2.72-1.69,4.06-2.63c1.31-1,2.72-1.92,3.98-3.06
		c0.64-0.56,1.3-1.11,1.95-1.67c0.61-0.61,1.23-1.22,1.85-1.83c2.4-2.51,4.7-5.25,6.5-8.32c1.82-3.06,3.27-6.35,4.21-9.74
		c0.71-2.59,1.06-5.23,1.14-7.82c1.56-1.44,3.2-2.76,4.9-3.89c1.61-1.13,3.36-2.01,5.05-2.93c1.78-0.76,3.51-1.56,5.32-2.08
		l1.34-0.44c0.45-0.13,0.9-0.22,1.35-0.32c0.91-0.2,1.79-0.45,2.68-0.61c1.79-0.26,3.54-0.57,5.27-0.6
		c1.73-0.17,3.41-0.02,5.04,0.02c0.82,0,1.61,0.17,2.39,0.25c0.27,0.04,0.53,0.07,0.8,0.1c0.31,0.72,0.94,1.3,1.77,1.49
		c4.46,1.02,8.71,2.83,12.63,5.39c0.43,0.28,0.91,0.41,1.38,0.41c0.58,0,1.15-0.21,1.6-0.58c0.52,0.35,0.98,0.67,1.35,0.92
		c0.8,0.54,1.22,0.83,1.22,0.83S545.08,443.45,544.33,442.83z M487.86,452.99c-0.91,3.16-2.29,6.22-4.01,9.08
		c-1.67,2.91-3.82,5.52-6.09,7.92c-0.59,0.59-1.17,1.18-1.74,1.76c-0.61,0.55-1.22,1.1-1.83,1.64c-1.18,1.13-2.51,2.05-3.75,3.04
		c-1.27,0.96-2.6,1.78-3.85,2.67c-0.14,0.08-0.27,0.16-0.41,0.25c0.28-0.24,0.55-0.47,0.83-0.71c2.6-2.5,5.19-5.34,7.34-8.61
		c2.22-3.23,4.28-6.69,6.33-10.15c2.08-3.45,4.29-6.86,6.83-9.96c0.42-0.51,0.86-0.99,1.3-1.48
		C488.59,449.96,488.28,451.48,487.86,452.99z M124.73,442.61c0-20.87,13.04-27.03,19.79-27.03c6.4,0,8.3,4.12,8.3,7.31
		c0,3.22-1.6,5.41-3.69,5.41c-2.23,0-2.75-2.06-2.75-2.06s-0.1,4.34,4.56,4.34c3.6,0,5.15-3.92,5.15-6.14
		c0-2.23-0.81-9.54-11.83-11.12c-7.68-1.1-24.36,5.72-24.36,29.02c0,31.25,30.29,46.71,30.29,46.71c-0.16,0-0.33-0.01-0.49-0.01
		c-1-0.36-2.07-0.77-3.27-1.19c-0.99-0.33-2-0.81-3.08-1.25c-1.92-0.92-4.01-1.92-6.09-3.29c-1.34-0.73-2.57-1.73-3.87-2.72
		c-1.35-0.92-2.51-2.17-3.8-3.31c-2.41-2.49-4.76-5.28-6.81-8.5c-2.1-3.18-4.01-6.64-6.07-10.15c-2.07-3.51-4.33-7.05-6.99-10.33
		c-1.1-1.34-2.31-2.59-3.56-3.78c-0.01-0.35-0.03-0.71-0.03-1.06c0.06-3.12,0.48-6.15,1.32-8.91c0.62-1.97,1.37-3.81,2.22-5.5
		c0.16,0.03,0.33,0.07,0.5,0.07c0.84,0,1.66-0.41,2.14-1.17c2.15-3.36,4.93-6.27,8.26-8.67c1.08-0.78,1.36-2.25,0.67-3.37
		c0.1-0.06,0.2-0.13,0.28-0.19c0.67-0.47,1.02-0.71,1.02-0.71s-0.38,0.21-1.09,0.59c-0.09,0.05-0.2,0.11-0.3,0.17
		c0-0.01-0.01-0.02-0.01-0.03c-0.82-1.14-2.41-1.4-3.55-0.57c-3.84,2.77-7.06,6.16-9.56,10.05c-0.63,0.98-0.49,2.23,0.25,3.06
		c-0.99,1.73-1.9,3.63-2.63,5.71c-0.93,2.64-1.51,5.56-1.69,8.6c-1.16-0.96-2.35-1.87-3.61-2.7c-0.89-0.54-1.72-1.18-2.66-1.62
		c-0.92-0.47-1.83-0.94-2.74-1.4c-1.9-0.77-3.75-1.57-5.67-2.08l-1.42-0.43c-0.47-0.12-0.96-0.21-1.43-0.31
		c-0.95-0.19-1.89-0.43-2.83-0.55c-1.89-0.21-3.74-0.46-5.55-0.43c-1.81-0.1-3.57,0.1-5.26,0.22c-0.85,0.04-1.66,0.27-2.47,0.39
		c-0.22,0.05-0.45,0.08-0.66,0.12c-0.53-0.99-1.66-1.55-2.8-1.29c-5.04,1.15-9.85,3.2-14.28,6.08c-1.18,0.77-1.5,2.34-0.74,3.52
		c0,0,0,0,0.01,0c-0.34,0.28-0.65,0.53-0.91,0.75c-0.74,0.61-1.14,0.94-1.14,0.94s0.43-0.29,1.22-0.83
		c0.28-0.19,0.62-0.42,0.98-0.67c0.5,0.62,1.22,0.96,1.97,0.96c0.47,0,0.95-0.13,1.38-0.41c3.93-2.56,8.18-4.37,12.64-5.39
		c1.07-0.24,1.81-1.12,1.95-2.14c0.2-0.02,0.41-0.05,0.62-0.08c0.78-0.08,1.57-0.25,2.39-0.25c1.63-0.04,3.31-0.19,5.04-0.02
		c1.73,0.02,3.49,0.34,5.27,0.6c0.89,0.16,1.78,0.41,2.68,0.61c0.45,0.11,0.9,0.19,1.35,0.32l1.33,0.44
		c1.81,0.52,3.54,1.32,5.32,2.08c1.7,0.92,3.44,1.8,5.05,2.93c1.7,1.13,3.35,2.45,4.9,3.89c0.08,2.59,0.43,5.23,1.14,7.82
		c0.94,3.39,2.39,6.68,4.21,9.74c1.8,3.07,4.1,5.81,6.51,8.32c0.62,0.61,1.24,1.22,1.85,1.83c0.65,0.56,1.31,1.11,1.95,1.67
		c1.26,1.14,2.67,2.06,3.98,3.06c1.34,0.94,2.73,1.79,4.06,2.63c1.39,0.76,2.75,1.5,4.06,2.22c1.35,0.64,2.67,1.27,3.95,1.87
		c1.31,0.53,2.57,1.04,3.78,1.52c1.2,0.51,2.41,0.86,3.53,1.25c1.12,0.35,2.17,0.74,3.19,1c-20.17-3.19-48.78-29.76-67.2-29.76
		c-15.57,0-17.58,10.49-17.58,13.14c0,4.98,3.23,7.57,6.25,7.09c3.03-0.48,3.92-2.97,3.92-2.97c-4.03,2.12-6.46-0.84-6.46-4.02
		c0-2.33,2.12-8.47,13.66-8.47c17.9,0,56.88,34.42,100.57,30.47C149.02,494.21,124.73,468.56,124.73,442.61z M128.71,479.11
		c-1.25-0.89-2.58-1.72-3.85-2.67c-1.24-0.99-2.57-1.92-3.75-3.04c-0.61-0.54-1.22-1.09-1.83-1.64c-0.58-0.58-1.16-1.17-1.74-1.76
		c-2.27-2.41-4.42-5.02-6.09-7.92c-1.73-2.86-3.11-5.93-4.01-9.08c-0.41-1.51-0.73-3.02-0.94-4.54c0.44,0.49,0.89,0.97,1.3,1.48
		c2.55,3.11,4.76,6.51,6.83,9.96c2.05,3.47,4.11,6.93,6.33,10.15c2.15,3.28,4.75,6.12,7.34,8.61c0.28,0.24,0.55,0.47,0.83,0.71
		C128.98,479.28,128.85,479.2,128.71,479.11z"/>
	<g>
		<path class="st1" d="M196.76,512.26c0.06-0.08,0.14-0.18,0.22-0.31c0.09-0.13,0.18-0.26,0.28-0.4c0.1-0.13,0.19-0.27,0.27-0.4
			c0.07-0.13,0.13-0.21,0.15-0.25c0.01,0.08,0.04,0.22,0.06,0.43c0.01,0.21,0.04,0.33,0.08,0.37c0.06,0.58,0.13,1.41,0.22,2.49
			c0.09,1.09,0.2,2.3,0.32,3.63c0.12,1.33,0.25,2.71,0.41,4.15c0.16,1.43,0.32,2.77,0.49,4.01c0.17,1.25,0.35,2.34,0.54,3.28
			c0.19,0.94,0.38,1.57,0.58,1.88c0.35,0.58,0.78,1.06,1.3,1.45c0.51,0.4,1.06,0.72,1.66,0.98c0.59,0.26,1.2,0.44,1.84,0.55
			c0.63,0.1,1.28,0.16,1.96,0.16h0.38v4.92h-0.88c-0.59,0-1.25-0.03-1.96-0.1c-0.71-0.07-1.36-0.2-1.96-0.4
			c-0.1-0.04-0.23-0.09-0.38-0.18c-0.16-0.08-0.29-0.11-0.39-0.09c-1.53-0.67-2.69-1.57-3.48-2.71c-0.8-1.14-1.37-2.58-1.71-4.34
			c-1.09,0.4-2.25,0.71-3.51,0.95c-1.25,0.24-2.47,0.36-3.66,0.36c-0.33,0-0.7-0.04-1.15-0.12c-0.45-0.07-0.86-0.21-1.26-0.38
			c-0.4-0.18-0.73-0.42-1-0.73c-0.28-0.31-0.42-0.69-0.42-1.14c0-0.2,0.03-0.38,0.09-0.55c0.06-0.17,0.12-0.34,0.18-0.52
			c0.06-0.18,0.1-0.36,0.13-0.55c0.03-0.19,0.02-0.36-0.04-0.52c0.1-0.22,0.19-0.43,0.28-0.63c0.09-0.21,0.19-0.42,0.32-0.64
			c0.04,0,0.06-0.01,0.06-0.04c0-0.03,0.01-0.06,0.03-0.08l0.35-0.53c0.67-0.61,1.34-1.16,2-1.64c0.67-0.49,1.33-0.92,2.02-1.32
			c0.68-0.39,1.41-0.75,2.16-1.07c0.76-0.31,1.6-0.61,2.5-0.89c-0.05-0.43-0.13-0.9-0.23-1.41c-0.11-0.5-0.21-1.01-0.33-1.51
			c-0.12-0.5-0.22-1-0.3-1.5c-0.08-0.49-0.12-0.94-0.12-1.34v-0.12c0.28-0.55,0.57-1.08,0.87-1.6c0.31-0.51,0.62-1.04,0.96-1.57
			L196.76,512.26z M195.57,524.94c-0.43,0.1-0.98,0.22-1.63,0.37c-0.65,0.15-1.3,0.33-1.97,0.55c-0.66,0.22-1.28,0.46-1.85,0.74
			c-0.57,0.28-0.98,0.58-1.21,0.92c0.49,0.32,0.98,0.53,1.44,0.64c0.46,0.11,0.97,0.19,1.53,0.25c0.19,0.02,0.38,0.03,0.54,0.02
			c0.18-0.01,0.35-0.02,0.55-0.02l0.81-0.06l0.06-0.03c0.11-0.02,0.28-0.05,0.49-0.09c0.21-0.04,0.43-0.07,0.67-0.12
			c0.23-0.04,0.45-0.07,0.64-0.1c0.19-0.03,0.3-0.05,0.34-0.05c-0.1-0.47-0.16-0.96-0.17-1.45c-0.02-0.49-0.05-0.98-0.06-1.45
			L195.57,524.94z M192.23,499.54c0.25,0.06,0.61,0.34,1.06,0.84c0.46,0.5,1.23,1.2,2.32,2.09l0.06,0.06
			c-0.11,0.06-1.16,1.11-3.17,3.17c-1.17-0.71-2.24-1.78-3.21-3.2C191.05,500.74,192.02,499.76,192.23,499.54z M198,499.24
			c0.25,0.06,0.61,0.34,1.07,0.86c0.45,0.51,1.22,1.2,2.28,2.08l0.06,0.09c-0.1,0.06-1.17,1.11-3.2,3.17
			c-1.15-0.71-2.21-1.78-3.17-3.2C196.82,500.48,197.81,499.48,198,499.24z"/>
		<path class="st1" d="M209.39,549.78c0.26,0.06,0.61,0.34,1.07,0.85c0.45,0.51,1.22,1.2,2.32,2.09l0.06,0.06
			c-0.1,0.06-1.16,1.12-3.18,3.17c-1.17-0.71-2.24-1.78-3.2-3.2C208.21,550.99,209.19,550,209.39,549.78z M214.67,529.71
			c0.18,0,0.29,0.11,0.35,0.33c0.1,2.87,1.74,4.26,4.92,4.18v5.1h-0.35h-0.09h-0.48h-0.12h-0.08h-0.12h-0.39l-0.57-0.06l-0.59-0.09
			l-0.41-0.12l-0.06-0.03h-0.12h-0.06c-0.08-0.06-0.18-0.1-0.33-0.12l-0.12-0.06l-0.06-0.03c-0.08-0.02-0.16-0.06-0.24-0.12
			l-0.06-0.03l-0.12-0.03l-0.54-0.36l-0.09-0.06c-0.04-0.04-0.08-0.07-0.14-0.12c-0.1-0.14-0.26-0.28-0.45-0.42
			c0-0.01-0.01-0.04-0.06-0.06l-0.03-0.09l-0.06-0.06c-0.06-0.14-0.17-0.28-0.32-0.42l-0.03-0.09c-0.08-0.1-0.15-0.22-0.21-0.36
			l-0.03-0.03l-0.09-0.21l-0.06-0.18l-0.03-0.06c-0.12,0.08-0.23,0.19-0.33,0.33l-0.06,0.03c-0.02,0-0.03,0.02-0.03,0.06
			c-0.11,0.06-0.2,0.14-0.3,0.24l-0.12,0.06l-0.09,0.12l-0.09,0.06l-0.12,0.12l-0.09,0.09c-0.04,0-0.07,0.01-0.09,0.03l-0.08,0.06
			l-0.42,0.29l-0.03,0.06l-0.08,0.03l-0.06,0.06l-0.09,0.06l-0.18,0.09l-0.09,0.09l-0.12,0.03l-0.27,0.21
			c-0.1,0.02-0.19,0.07-0.27,0.15c-0.1,0.02-0.2,0.06-0.29,0.12l-0.18,0.09l-0.24,0.12l-0.27,0.12l-0.15,0.06l-0.42,0.12l-0.21,0.06
			l-0.15,0.03l-0.45,0.12l-0.18,0.03l-0.42,0.06v-5.1c0.42,0,1.38-0.1,2.89-0.3c1.51-0.19,2.76-1.4,3.75-3.62l0.27-0.36l0.06-0.09
			L214.67,529.71z M215.17,549.49c0.26,0.06,0.61,0.35,1.07,0.86c0.45,0.51,1.22,1.21,2.28,2.08l0.06,0.09
			c-0.1,0.06-1.17,1.12-3.2,3.17c-1.14-0.71-2.21-1.78-3.17-3.2C213.99,550.72,214.97,549.72,215.17,549.49z"/>
		<path class="st1" d="M222.64,509.03c0.28,0.06,0.65,0.35,1.11,0.89c0.46,0.53,1.25,1.25,2.36,2.13l0.06,0.09
			c-0.11,0.06-1.19,1.15-3.26,3.26c-1.18-0.73-2.3-1.83-3.32-3.29C221.43,510.29,222.44,509.26,222.64,509.03z M225.16,522.69
			l0.45,0.8l0.11,0.33l0.15,0.24l0.86,2.4l0.47,2.01l0.09,2.76l-0.18,1.42l-0.57,1.9l-0.41,0.83c-0.05,0.1-0.08,0.19-0.12,0.27
			l-0.59,1.04l-0.78,0.89l-0.95,0.71l-0.8,0.41l-0.3,0.12l-0.33,0.09l-0.3,0.12l-2.08,0.3v-5.1c0.1,0.04,1.08-0.04,2.94-0.24
			l0.98-0.24l0.3-0.12l0.33-0.09l0.56-0.24c0.04-0.1,0.07-0.21,0.09-0.33l-0.42-2.02l-0.44-1.21l-0.15-0.24l-0.12-0.33l-0.86-1.57
			l-0.21-0.33l0.47-1.45l1.45-2.64l0.18-0.24L225.16,522.69z"/>
		<path class="st1" d="M232.19,494.53c0.07,0.99,0.19,2.05,0.35,3.2c0.16,1.15,0.31,2.3,0.46,3.47c0.15,1.16,0.26,2.32,0.31,3.45
			c0.06,1.14,0.05,2.2-0.03,3.19h0.03l0.09,2.02h0.03l1.24,16.57c0.08,1.12,0.24,2.09,0.46,2.88c0.23,0.79,0.49,1.46,0.79,2
			c0.3,0.54,0.61,0.98,0.95,1.32c0.34,0.34,0.64,0.61,0.92,0.83c0.28,0.22,0.52,0.4,0.74,0.53c0.22,0.14,0.36,0.28,0.45,0.42v4.92
			c-1.05,0.04-1.97-0.16-2.75-0.61c-0.78-0.45-1.45-1.04-2-1.78c-0.55-0.74-1-1.59-1.35-2.54c-0.35-0.95-0.62-1.91-0.81-2.9
			c-0.2-0.99-0.34-1.94-0.42-2.86c-0.08-0.92-0.12-1.72-0.12-2.42h-0.03l-0.68-12.86h-0.03l-1.33-14.61L232.19,494.53z"/>
		<path class="st1" d="M253.12,516.26c0.06,0.08,0.1,0.16,0.15,0.24l1.78,2.64l4.68,4.86c0.06,0.06,0.13,0.13,0.21,0.21l0.18,0.24
			l0.17,0.18c0.06,0.06,0.13,0.13,0.21,0.21l1.22,1.57l0.86,1.54l0.83,2.34l0.3,2.13l-0.06,1.96l-0.18,1.01l-0.33,0.89
			c-0.01,0.08-0.05,0.18-0.08,0.3l-0.42,0.77l-0.65,0.95l-0.86,0.74l-0.44,0.33l-0.3,0.15l-0.65,0.12l-4.15-0.23l-3.26-0.71
			l-2.34-0.83l-0.27-0.15c-0.08-0.01-0.17-0.06-0.26-0.12l-1.16-0.45l-0.29-0.14l-0.18-0.06l-0.06,0.06l-3.71,1.48l-3.26,0.71
			l-1.87,0.15l-0.03-4.77c0-0.12,0.03-0.22,0.09-0.33l4.77-0.8l0.29-0.09l0.06-0.09l-0.35-1.48l-0.09-0.71l-0.03-1.57l0.53-2.67
			l1.04-2.14l1.22-1.57l0.83-0.8c0.06-0.06,0.12-0.12,0.18-0.18c0.06-0.06,0.13-0.12,0.24-0.18l0.21-0.21
			c0.08-0.04,0.15-0.1,0.2-0.18l0.24-0.15c0.08-0.04,0.16-0.1,0.24-0.18l1.99-1.19l0.33-0.12l0.23-0.15l0.24-0.56
			c0.01-0.1,0.06-0.19,0.12-0.27l0.98-1.78L253.12,516.26z M250.01,524.44l-0.74,0.18l-0.86,0.45l-1.01,0.8l-1.01,1.18l-0.15,0.3
			c-0.02,0.1-0.03,0.21-0.03,0.32c0.02,0.14,0.05,0.26,0.09,0.36l0.12,0.33l0.62,1.16l0.36,0.5c0.06,0.08,0.13,0.16,0.23,0.24
			l0.21,0.24l0.71,0.59l0.53,0.36l0.62,0.27l0.27-0.09l1.15-0.62l1.21-0.95l0.45-0.44l0.18-0.27l0.03-0.42l-0.06-1.27l-0.15-0.74
			l-0.21-0.65c-0.04-0.1-0.09-0.2-0.15-0.3l-0.15-0.3l-0.38-0.5l-0.47-0.38l-0.3-0.15l-0.33-0.12l-0.38-0.06H250.01z M255.49,526.6
			l-1.96,4.83l-0.56,1.04c-0.06,0.1-0.12,0.21-0.18,0.33l2.96,1.22l2.14,0.5l2.38,0.24l1.03-0.03l-0.06-0.33l-1.78-3.47l-1.81-2.34
			l-0.3-0.24l-0.21-0.3L255.49,526.6z"/>
		<path class="st1" d="M288.63,522.01h0.35l0.21,0.15c0.14,0.3,0.21,0.64,0.21,1.01l0.03,0.3l0.03,0.15
			c-0.04,0.65-0.01,1.38,0.09,2.17c0.1,0.79,0.23,1.51,0.39,2.16l0.5,1.75l0.18,0.41c-0.12,0.34-0.08,0.67,0.12,1.01
			c0.19,0.34,0.48,0.67,0.86,1c0.37,0.32,0.82,0.62,1.33,0.89c0.52,0.27,1.04,0.5,1.58,0.69c0.55,0.2,1.07,0.35,1.59,0.45
			c0.51,0.1,0.97,0.12,1.37,0.06v5.13h-1.31c-1.48,0-2.71-0.24-3.68-0.73c-0.97-0.49-1.75-1.09-2.36-1.79
			c-0.6-0.71-1.05-1.49-1.37-2.34c-0.3-0.85-0.52-1.65-0.65-2.4c-0.13-0.75-0.2-1.39-0.23-1.91c-0.03-0.53-0.09-0.83-0.16-0.91
			c-0.02-0.26-0.05-0.51-0.09-0.75c-0.04-0.25-0.06-0.5-0.06-0.76l-0.09-0.77l-0.18-0.18c-0.14,0-0.25,0.05-0.34,0.17
			c-0.09,0.11-0.16,0.24-0.21,0.38c-0.04,0.15-0.08,0.31-0.1,0.49c-0.02,0.18-0.01,0.34,0.03,0.47c-0.42,0.97-0.8,1.78-1.16,2.43
			c-0.35,0.65-0.77,1.19-1.26,1.6c-0.49,0.42-1.08,0.71-1.78,0.89c-0.7,0.18-1.61,0.27-2.74,0.27v0.09c0,0.47,0.05,0.96,0.15,1.47
			c0.1,0.5,0.15,1,0.15,1.5c0,2.04-0.43,3.91-1.29,5.62c-0.86,1.71-2,3.18-3.42,4.43c-1.43,1.24-3.05,2.22-4.87,2.92
			c-1.82,0.7-3.69,1.05-5.6,1.05c-0.58,0-1.19-0.08-1.84-0.25c-0.66-0.17-1.31-0.39-1.96-0.67c-0.65-0.28-1.28-0.59-1.87-0.93
			c-0.59-0.35-1.09-0.7-1.51-1.06c-0.32-0.25-0.62-0.53-0.93-0.83c-0.3-0.3-0.59-0.6-0.84-0.92c-0.1-0.12-0.2-0.23-0.3-0.33
			c-0.1-0.1-0.19-0.22-0.26-0.36c-0.05-0.06-0.11-0.13-0.2-0.22c-0.09-0.09-0.09-0.13-0.01-0.13c0.12,0,0.48,0.09,1.1,0.29
			c0.61,0.18,1.35,0.39,2.19,0.6c0.85,0.22,1.76,0.41,2.73,0.59c0.97,0.18,1.87,0.26,2.7,0.26c1.03,0,2.12-0.1,3.29-0.31
			c1.17-0.21,2.31-0.53,3.44-0.95c1.13-0.43,2.18-0.95,3.17-1.57c0.99-0.62,1.82-1.34,2.52-2.15c0.06-0.06,0.14-0.15,0.25-0.28
			c0.11-0.13,0.23-0.27,0.36-0.42c0.13-0.15,0.25-0.29,0.35-0.43c0.11-0.14,0.17-0.24,0.17-0.3c0.1-0.45,0.15-0.92,0.15-1.38
			c0-0.47,0-0.92,0-1.38c0-0.85-0.08-1.69-0.25-2.5c-0.16-0.82-0.38-1.63-0.64-2.42c-0.2-0.59-0.44-1.19-0.73-1.78
			c-0.28-0.59-0.59-1.14-0.9-1.66c-0.04-0.08-0.12-0.19-0.23-0.34c-0.11-0.15-0.16-0.26-0.16-0.34c0-0.02,0.06-0.13,0.16-0.35
			c0.11-0.22,0.24-0.48,0.4-0.8c0.16-0.32,0.34-0.65,0.55-1.01c0.2-0.36,0.4-0.69,0.58-1.01c0.18-0.32,0.33-0.59,0.47-0.81
			c0.13-0.23,0.23-0.37,0.27-0.43c-0.16,0.43-0.07,0.91,0.27,1.42c0.33,0.51,0.77,0.98,1.32,1.41c0.55,0.43,1.12,0.78,1.74,1.07
			c0.61,0.28,1.11,0.43,1.51,0.43c0.89,0,1.64-0.25,2.25-0.76c0.62-0.5,1.16-1.09,1.63-1.76c0.47-0.67,0.93-1.36,1.36-2.08
			C287.58,523.02,288.08,522.44,288.63,522.01z M284.51,545.93c0.28,0.06,0.64,0.36,1.11,0.89c0.47,0.53,1.25,1.24,2.36,2.13
			l0.06,0.09c-0.11,0.06-1.19,1.15-3.27,3.26c-1.19-0.73-2.29-1.83-3.32-3.29C283.3,547.2,284.31,546.17,284.51,545.93z"/>
		<path class="st1" d="M301.54,498.65c0.29-0.32,0.56-0.64,0.85-0.97c0.27-0.32,0.53-0.65,0.77-0.98c0.24-0.33,0.42-0.63,0.53-0.93
			c0.1,0.77,0.18,1.53,0.24,2.28c0.06,0.75,0.12,1.51,0.18,2.28c0.01,0.04,0.03,0.13,0.04,0.27c0.01,0.14,0.02,0.28,0.02,0.45
			c0,0.16,0,0.3,0.01,0.44c0.01,0.13,0.03,0.22,0.05,0.23v0.33l0.03,0.06l0.65,11.71l0.21,2.14c0.04,0.5,0.08,0.99,0.13,1.5
			c0.05,0.5,0.07,1,0.07,1.49l0.06,0.68c0.04,0.44,0.09,0.98,0.15,1.63c0.06,0.65,0.12,1.37,0.19,2.15
			c0.07,0.78,0.13,1.52,0.18,2.22c0.06,0.7,0.09,1.31,0.14,1.82c0.04,0.52,0.06,0.83,0.06,0.95l-0.03,0.92
			c-0.02,0.04-0.04,0.11-0.06,0.2c-0.02,0.1-0.04,0.23-0.06,0.37c-0.02,0.15-0.03,0.29-0.05,0.42c-0.01,0.13-0.01,0.22-0.01,0.28
			c-0.04,0.34-0.12,0.7-0.25,1.09c-0.13,0.39-0.27,0.77-0.42,1.15c-0.15,0.39-0.31,0.75-0.49,1.11c-0.18,0.35-0.36,0.68-0.53,0.98
			l-0.59,0.92c-0.32,0.43-0.67,0.87-1.07,1.3c-0.4,0.44-0.83,0.78-1.3,1.04c0,0.1-0.14,0.21-0.4,0.35
			c-0.27,0.13-0.57,0.25-0.89,0.35c-0.33,0.11-0.65,0.21-0.96,0.3c-0.32,0.09-0.52,0.13-0.59,0.13h-0.95v-4.95
			c1.24,0.1,2.38-0.13,3.41-0.68c1.02-0.55,1.93-1.29,2.72-2.22l-0.06-0.62c-0.04-0.04-0.06-0.14-0.06-0.31c0-0.17,0-0.27,0-0.31
			c-0.12-1.52-0.27-3.04-0.47-4.57c-0.18-1.52-0.34-3.04-0.46-4.56c-0.04-0.04-0.07-0.22-0.1-0.54c-0.03-0.33-0.06-0.68-0.07-1.05
			c-0.02-0.37-0.05-0.72-0.08-1.02c-0.03-0.31-0.05-0.47-0.06-0.49c-0.14-3.04-0.35-6.08-0.64-9.12c-0.28-3.03-0.53-6.07-0.72-9.11
			l-0.03-0.06v-0.18C301.01,499.25,301.26,498.97,301.54,498.65z"/>
		<path class="st1" d="M312.97,495.86c0.04,0,0.07,0.03,0.09,0.09c0,0.14,0.01,0.3,0.06,0.5v0.21v0.12c0.01,0.1,0.03,0.2,0.03,0.3
			l0.03,0.09v0.3l0.03,0.12l0.03,0.47v0.12l0.03,0.12v0.24c0.02,0.1,0.03,0.22,0.03,0.35l0.06,0.48v0.12l0.03,0.47l0.06,0.56v0.09
			c0,0.04,0.01,0.07,0.03,0.09v0.09l0.83,14.29l0.03,0.06v0.09v0.12c0.02,0.1,0.03,0.21,0.03,0.33v0.09
			c0.01,0.06,0.03,0.14,0.03,0.24c0,0.14,0.01,0.31,0.06,0.5v0.21l0.03,0.15v0.21v0.09c0.02,0.06,0.03,0.14,0.03,0.24l0.03,0.21
			v0.24l0.06,0.62v0.12l0.03,0.09v0.15v0.12l0.03,0.15v0.12v0.06v0.12v0.24l0.06,0.62v0.09l0.03,0.09v0.12v0.12l0.06,0.47v0.33
			l0.03,0.15v0.21c0.04,0.16,0.06,0.34,0.06,0.53l0.03,0.21c-0.02,0.1-0.02,0.22,0.03,0.36v0.09l0.03,0.5
			c0,0.02,0.01,0.04,0.04,0.06c0,0.14,0.01,0.31,0.03,0.51c0,0.06,0.01,0.13,0.03,0.21v0.12v0.06v0.14l0.06,0.48l0.03,0.53
			l0.06,0.71l0.03,0.56c0,0.08,0.01,0.16,0.03,0.24v0.09v0.15l0.03,0.29l0.03,0.3l0.06,0.65v0.12c0,0.06,0.01,0.12,0.03,0.18v0.21
			v0.09c0.02,0.1,0.03,0.23,0.03,0.39v0.33v0.09v0.47v0.12v0.12v0.12v0.5v0.12v0.12c-0.02,0.12-0.03,0.26-0.03,0.42l-0.03,0.12
			c0.02,0.08,0.01,0.18-0.03,0.3v0.21l-0.06,0.56l-0.03,0.06l-0.09,0.89l-0.12,0.45l-0.03,0.24l-0.06,0.15v0.06l-0.03,0.09
			l-0.03,0.09l-0.03,0.09l-0.03,0.15l-0.03,0.12c-0.02,0.02-0.03,0.06-0.03,0.12c-0.04,0.1-0.08,0.22-0.12,0.36
			c-0.02,0.02-0.03,0.06-0.03,0.12c-0.08,0.16-0.15,0.36-0.21,0.59l-0.06,0.12c-0.02,0.02-0.03,0.06-0.03,0.12
			c-0.11,0.14-0.18,0.31-0.24,0.5c-0.1,0.16-0.2,0.35-0.29,0.59l-0.03,0.06l-0.09,0.09l-0.03,0.12c-0.11,0.12-0.2,0.28-0.3,0.47
			l-0.06,0.06l-0.03,0.09l-0.09,0.06l-0.03,0.06l-0.08,0.09l-0.03,0.09c-0.06,0.1-0.15,0.18-0.27,0.24
			c0.02-0.18,0.01-0.39-0.03-0.65v-0.71c0-0.1-0.01-0.19-0.03-0.3v-0.18c0.02-0.17,0.01-0.39-0.03-0.65l-0.03-1.19
			c0-0.06-0.01-0.13-0.03-0.21v-0.56c-0.02-0.14-0.03-0.28-0.03-0.44v-0.18c-0.04-0.13-0.05-0.31-0.03-0.5v-0.09l-0.03-0.03
			c0.02-0.16,0.01-0.36-0.03-0.59v-0.42c-0.02-0.1-0.03-0.19-0.03-0.3l-0.06-1.07c0-0.02-0.01-0.05-0.03-0.09l-0.09-1.81
			c0-0.14-0.01-0.31-0.03-0.5l-0.15-1.96c0-0.18-0.02-0.39-0.06-0.65l-0.06-1.01c-0.02-0.1-0.04-0.21-0.04-0.33l-0.03-0.06
			l-0.03-0.56l-0.03-0.09l-0.03-0.65l-0.03-0.06v-0.2l-0.03-0.12v-0.24l-0.03-0.26c-0.02-0.12-0.03-0.25-0.03-0.38v-0.33l-0.03-0.12
			v-0.21l-0.03-0.12l-0.03-0.3v-0.18l-0.12-1.1l-0.03-0.41c0-0.02-0.01-0.04-0.03-0.06v-0.3l-0.03-0.06c0-0.16-0.01-0.28-0.03-0.39
			l-0.03-0.45c-0.04-0.16-0.06-0.34-0.06-0.53v-0.09l-0.03-0.21l-0.09-0.92l-0.09-1.13v-0.09l-1.19-15.44
			c0.08-0.2,0.19-0.38,0.36-0.53l0.03-0.09l0.06-0.03l0.03-0.06l0.15-0.15c0.06-0.08,0.11-0.18,0.15-0.3l0.09-0.06l0.06-0.06
			l0.06-0.12l0.23-0.27l0.03-0.12c0.08-0.06,0.15-0.15,0.21-0.27l0.09-0.09l0.09-0.12l0.09-0.12l0.09-0.09l0.06-0.15l0.12-0.12
			c0.05-0.12,0.16-0.24,0.29-0.35l0.03-0.09l0.06-0.03l0.03-0.09l0.03-0.09c0.01,0,0.04-0.02,0.06-0.06l0.06-0.06l0.12-0.12
			l0.3-0.41l0.03-0.06L312.97,495.86z"/>
		<path class="st1" d="M342.67,512.26c0.06-0.08,0.13-0.18,0.22-0.31c0.08-0.13,0.18-0.26,0.28-0.4c0.1-0.13,0.19-0.27,0.27-0.4
			c0.07-0.13,0.13-0.21,0.15-0.25c0.01,0.08,0.04,0.22,0.06,0.43c0.02,0.21,0.05,0.33,0.09,0.37c0.06,0.58,0.13,1.41,0.22,2.49
			c0.09,1.09,0.19,2.3,0.31,3.63c0.12,1.33,0.26,2.71,0.42,4.15c0.16,1.43,0.32,2.77,0.49,4.01c0.17,1.25,0.35,2.34,0.53,3.28
			c0.19,0.94,0.38,1.57,0.58,1.88c0.35,0.58,0.79,1.06,1.31,1.45c0.51,0.4,1.06,0.72,1.66,0.98c0.59,0.26,1.2,0.44,1.84,0.55
			c0.63,0.1,1.28,0.16,1.96,0.16h0.38v4.92h-0.89c-0.59,0-1.24-0.03-1.95-0.1c-0.71-0.07-1.36-0.2-1.96-0.4
			c-0.1-0.04-0.22-0.09-0.38-0.18c-0.16-0.08-0.29-0.11-0.39-0.09c-1.53-0.67-2.68-1.57-3.49-2.71c-0.8-1.14-1.36-2.58-1.7-4.34
			c-1.09,0.4-2.26,0.71-3.52,0.95c-1.25,0.24-2.47,0.36-3.66,0.36c-0.32,0-0.7-0.04-1.14-0.12c-0.45-0.07-0.86-0.21-1.26-0.38
			s-0.73-0.42-1-0.73c-0.29-0.31-0.42-0.69-0.42-1.14c0-0.2,0.03-0.38,0.09-0.55c0.06-0.17,0.12-0.34,0.18-0.52
			c0.06-0.18,0.1-0.36,0.13-0.55c0.03-0.19,0.02-0.36-0.04-0.52c0.1-0.22,0.18-0.43,0.28-0.63c0.09-0.21,0.19-0.42,0.31-0.64
			c0.04,0,0.06-0.01,0.06-0.04c0-0.03,0.01-0.06,0.03-0.08l0.35-0.53c0.67-0.61,1.34-1.16,2-1.64c0.67-0.49,1.34-0.92,2.02-1.32
			c0.68-0.39,1.41-0.75,2.17-1.07c0.76-0.31,1.59-0.61,2.51-0.89c-0.06-0.43-0.14-0.9-0.24-1.41c-0.11-0.5-0.21-1.01-0.33-1.51
			c-0.12-0.5-0.22-1-0.29-1.5c-0.08-0.49-0.12-0.94-0.12-1.34v-0.12c0.28-0.55,0.57-1.08,0.87-1.6c0.31-0.51,0.63-1.04,0.96-1.57
			L342.67,512.26z M341.49,524.94c-0.43,0.1-0.98,0.22-1.63,0.37c-0.65,0.15-1.31,0.33-1.97,0.55c-0.66,0.22-1.28,0.46-1.85,0.74
			c-0.58,0.28-0.99,0.58-1.22,0.92c0.49,0.32,0.98,0.53,1.43,0.64c0.47,0.11,0.97,0.19,1.53,0.25c0.19,0.02,0.38,0.03,0.55,0.02
			c0.17-0.01,0.35-0.02,0.55-0.02l0.8-0.06l0.06-0.03c0.12-0.02,0.28-0.05,0.49-0.09c0.21-0.04,0.43-0.07,0.67-0.12
			c0.23-0.04,0.45-0.07,0.63-0.1c0.19-0.03,0.3-0.05,0.34-0.05c-0.1-0.47-0.16-0.96-0.17-1.45c-0.02-0.49-0.04-0.98-0.06-1.45
			L341.49,524.94z M338.14,499.54c0.26,0.06,0.61,0.34,1.07,0.84c0.46,0.5,1.22,1.2,2.31,2.09l0.06,0.06
			c-0.11,0.06-1.16,1.11-3.18,3.17c-1.17-0.71-2.24-1.78-3.2-3.2C336.96,500.74,337.94,499.76,338.14,499.54z M343.91,499.24
			c0.26,0.06,0.62,0.34,1.07,0.86c0.45,0.51,1.22,1.2,2.28,2.08l0.06,0.09c-0.1,0.06-1.17,1.11-3.2,3.17
			c-1.15-0.71-2.21-1.78-3.17-3.2C342.73,500.48,343.72,499.48,343.91,499.24z"/>
		<path class="st1" d="M359.07,498.65c0.04,0,0.07-0.04,0.12-0.11c0.04-0.07,0.07-0.11,0.09-0.13c0.35-0.47,0.7-0.96,1.03-1.47
			c0.34-0.51,0.67-1.01,1.01-1.52c0.09,0.65,0.18,1.46,0.26,2.43c0.08,0.97,0.16,2.02,0.24,3.15c0.07,1.12,0.16,2.29,0.25,3.51
			c0.09,1.22,0.18,2.41,0.25,3.59c0.08,1.18,0.15,2.3,0.21,3.38c0.06,1.08,0.12,2.02,0.18,2.83c0.06,0.81,0.12,1.46,0.16,1.96
			c0.05,0.49,0.09,0.75,0.11,0.77c0.06,0.5,0.1,0.98,0.13,1.47c0.03,0.49,0.06,0.97,0.1,1.46c0.02,0.02,0.04,0.14,0.06,0.34
			c0.02,0.21,0.04,0.44,0.06,0.7c0.01,0.26,0.04,0.5,0.06,0.73c0.02,0.22,0.03,0.35,0.03,0.37c0.04,0.04,0.05,0.1,0.03,0.18
			c-0.02,0.08-0.01,0.14,0.03,0.18c-0.04,0.59-0.02,1.27,0.06,2.02c0.08,0.75,0.21,1.5,0.39,2.25c0.18,0.75,0.38,1.48,0.6,2.19
			c0.23,0.71,0.49,1.34,0.79,1.87c0.04,0,0.11,0.11,0.22,0.33c0.11,0.22,0.2,0.35,0.26,0.39c0.71,0.91,1.59,1.6,2.64,2.08
			c1.05,0.47,2.14,0.74,3.26,0.8v4.95c-2.71,0.02-4.88-0.68-6.52-2.11c-1.64-1.42-2.8-3.42-3.47-5.99l-0.62,1.28
			c-0.05,0.02-0.09,0.08-0.15,0.18c-0.06,0.1-0.12,0.21-0.18,0.34c-0.06,0.13-0.12,0.25-0.17,0.36c-0.05,0.1-0.08,0.17-0.1,0.19
			c-0.04,0-0.09,0.06-0.15,0.19c-0.06,0.13-0.11,0.21-0.15,0.25c-0.04,0.04-0.1,0.13-0.19,0.27c-0.09,0.14-0.18,0.28-0.29,0.43
			c-0.11,0.15-0.21,0.29-0.3,0.43c-0.09,0.14-0.13,0.22-0.13,0.24l-0.77,0.89c-0.16,0.02-0.29,0.08-0.39,0.19
			c-0.1,0.11-0.2,0.22-0.3,0.34c-0.1,0.12-0.2,0.24-0.3,0.37c-0.1,0.13-0.19,0.24-0.29,0.34c-0.05,0.04-0.14,0.1-0.27,0.18
			c-0.14,0.08-0.22,0.14-0.24,0.18c-0.2,0.12-0.43,0.26-0.7,0.41c-0.27,0.16-0.54,0.32-0.86,0.49c-0.3,0.17-0.61,0.3-0.9,0.4
			c-0.3,0.1-0.55,0.15-0.74,0.15h-0.09v-4.95c1.31-0.16,2.5-0.56,3.59-1.21c1.08-0.65,2.05-1.48,2.91-2.49
			c0.13-0.59,0.25-1.19,0.34-1.81c0.09-0.61,0.12-1.22,0.11-1.81c-0.02-0.69-0.04-1.36-0.07-2.02c-0.03-0.65-0.08-1.31-0.14-1.98
			l-0.03-0.06l-0.14-1.99c-0.02-0.02-0.06-0.3-0.12-0.83c-0.06-0.53-0.13-1.24-0.19-2.12c-0.07-0.88-0.15-1.89-0.24-3.01
			c-0.09-1.12-0.18-2.3-0.27-3.51c-0.09-1.22-0.18-2.42-0.25-3.62c-0.08-1.2-0.16-2.29-0.24-3.29c-0.08-0.99-0.15-1.86-0.19-2.59
			c-0.05-0.73-0.08-1.24-0.1-1.51l-0.06-0.59v-0.15l0.21-0.35c0.02,0,0.06-0.03,0.12-0.11c0.06-0.07,0.12-0.15,0.18-0.25
			c0.06-0.1,0.12-0.19,0.16-0.27C359.04,498.72,359.07,498.67,359.07,498.65z"/>
		<path class="st1" d="M385.42,497.12c0.1-0.15,0.21-0.31,0.34-0.49c0.13-0.18,0.26-0.36,0.39-0.53c0.13-0.18,0.21-0.3,0.25-0.36
			c0.04,0.08,0.09,0.22,0.18,0.41c0.07,0.2,0.16,0.41,0.25,0.62c0.09,0.22,0.17,0.42,0.23,0.61c0.05,0.19,0.08,0.31,0.08,0.37
			c0.22,0.59,0.42,1.19,0.61,1.79c0.19,0.61,0.37,1.2,0.55,1.8c-0.12,0.04-0.25,0.09-0.38,0.16c-0.14,0.07-0.29,0.14-0.45,0.22
			c-0.16,0.08-0.3,0.17-0.43,0.27c-0.13,0.1-0.23,0.18-0.31,0.27c0.14,1.2,0.31,2.43,0.5,3.68c0.2,1.24,0.39,2.5,0.57,3.75
			c0.18,1.25,0.33,2.49,0.47,3.72c0.14,1.23,0.23,2.44,0.27,3.64c1.3-0.1,2.37,0.12,3.2,0.67c0.83,0.54,1.53,1.38,2.1,2.5
			c-0.62,1.56-1.57,2.86-2.88,3.88l-0.06,0.12c-0.87-0.16-1.59-0.45-2.16-0.89c-0.57-0.43-1.12-0.99-1.66-1.66
			c-0.02-0.13-0.08-0.23-0.18-0.28c-0.11-0.05-0.16-0.14-0.18-0.28c-0.16,0.04-0.35,0.13-0.58,0.27c-0.22,0.14-0.48,0.29-0.76,0.44
			c-0.29,0.2-0.61,0.4-0.92,0.59c-0.79,0.73-1.65,1.45-2.55,2.16c-0.91,0.71-1.85,1.33-2.82,1.84c0.45,0.12,1.08,0.27,1.9,0.46
			c0.8,0.19,1.69,0.4,2.65,0.65c0.96,0.24,1.96,0.5,3.01,0.77c1.05,0.27,2.03,0.53,2.96,0.8c0.93,0.27,1.75,0.52,2.48,0.75
			c0.72,0.24,1.26,0.43,1.62,0.56c0.06-0.02,0.3,0.02,0.74,0.12c0.43,0.1,0.91,0.21,1.42,0.33c0.51,0.12,1.01,0.24,1.48,0.37
			c0.47,0.13,0.76,0.19,0.86,0.19c0.02,0,0.13,0.02,0.33,0.05c0.19,0.03,0.41,0.07,0.65,0.13c0.24,0.06,0.45,0.12,0.65,0.18
			c0.2,0.06,0.3,0.12,0.3,0.18c-0.42,0.55-0.82,1.13-1.22,1.74c-0.4,0.6-0.76,1.21-1.1,1.82c-0.86-0.12-1.8-0.16-2.86-0.13
			c-1.06,0.03-2.14,0.11-3.27,0.24c-1.11,0.12-2.2,0.28-3.24,0.45c-1.05,0.18-1.99,0.35-2.82,0.52c-0.83,0.16-1.51,0.31-2.03,0.43
			c-0.52,0.12-0.81,0.18-0.84,0.18c-0.77,0.29-1.61,0.58-2.52,0.83c-0.91,0.26-1.84,0.49-2.79,0.68c-0.95,0.2-1.9,0.35-2.85,0.46
			c-0.95,0.1-1.83,0.16-2.64,0.16h-0.45v-4.57c0.96,0,1.9-0.04,2.79-0.13c0.89-0.09,1.76-0.21,2.64-0.35
			c0.87-0.13,1.74-0.29,2.61-0.47c0.87-0.18,1.76-0.36,2.7-0.53c0.1-0.02,0.24-0.05,0.42-0.09c0.19-0.04,0.38-0.08,0.58-0.13
			c0.2-0.05,0.39-0.09,0.57-0.14c0.18-0.04,0.3-0.05,0.36-0.03c0.18-0.1,0.35-0.17,0.52-0.22c0.17-0.05,0.35-0.08,0.55-0.11
			c-0.46-0.12-0.93-0.24-1.44-0.37c-0.5-0.13-0.96-0.29-1.37-0.49l-0.38-0.12c-0.26-0.07-0.58-0.16-0.97-0.27
			c-0.38-0.1-0.81-0.22-1.28-0.36c-0.46-0.14-0.9-0.27-1.32-0.4c-0.41-0.13-0.78-0.24-1.09-0.34c-0.32-0.1-0.53-0.17-0.62-0.21
			c-0.14,0.04-0.43-0.01-0.88-0.16c-0.45-0.15-0.93-0.32-1.45-0.5c-0.52-0.19-1.03-0.36-1.53-0.52c-0.5-0.16-0.84-0.24-1.04-0.24
			l-0.35-0.21c0.14-0.18,0.33-0.45,0.58-0.81c0.25-0.37,0.5-0.74,0.74-1.14c0.25-0.39,0.48-0.77,0.7-1.13
			c0.22-0.36,0.36-0.61,0.42-0.77c0.47,0.04,1.02,0.03,1.63-0.03c0.61-0.06,1.13-0.19,1.54-0.42c0.04,0,0.12-0.02,0.24-0.06
			c0.12-0.04,0.23-0.09,0.35-0.13c0.12-0.05,0.24-0.1,0.36-0.15c0.12-0.05,0.18-0.08,0.18-0.1l0.71-0.3l0.11-0.12
			c0.13-0.06,0.28-0.12,0.43-0.18c0.15-0.06,0.28-0.14,0.37-0.26c0.07-0.02,0.23-0.09,0.46-0.22c0.23-0.13,0.47-0.28,0.71-0.45
			c0.25-0.17,0.49-0.33,0.71-0.47c0.23-0.15,0.39-0.27,0.5-0.37c0.04,0,0.19-0.1,0.47-0.31c0.28-0.21,0.59-0.44,0.93-0.71
			c0.35-0.27,0.67-0.52,0.96-0.76c0.3-0.24,0.49-0.39,0.56-0.47c0.18-0.02,0.36-0.13,0.54-0.34c0.18-0.21,0.36-0.36,0.54-0.46
			c-0.43-3.24-0.81-6.46-1.15-9.66c-0.33-3.2-0.67-6.43-1.05-9.69v-0.21l1.18-1.24C385.27,497.38,385.32,497.27,385.42,497.12z"/>
		<path class="st1" d="M407.03,495.86c0.04,0,0.07,0.03,0.09,0.09c0,0.14,0.02,0.3,0.06,0.5v0.21v0.12c0.01,0.1,0.03,0.2,0.03,0.3
			l0.03,0.09v0.3l0.03,0.12l0.03,0.47v0.12l0.04,0.12v0.24c0.01,0.1,0.03,0.22,0.03,0.35l0.06,0.48v0.12l0.03,0.47l0.06,0.56v0.09
			c0,0.04,0.01,0.07,0.03,0.09v0.09l0.83,14.29l0.03,0.06v0.09v0.12c0.02,0.1,0.03,0.21,0.03,0.33v0.09
			c0.02,0.06,0.03,0.14,0.03,0.24c0,0.14,0.01,0.31,0.06,0.5v0.21l0.03,0.15v0.21v0.09c0.02,0.06,0.03,0.14,0.03,0.24l0.03,0.21
			v0.24l0.06,0.62v0.12l0.03,0.09v0.15v0.12l0.03,0.15v0.12v0.06v0.12v0.24l0.06,0.62v0.09l0.03,0.09v0.12v0.12l0.06,0.47v0.33
			l0.03,0.15v0.21c0.04,0.16,0.06,0.34,0.06,0.53l0.03,0.21c-0.02,0.1-0.02,0.22,0.03,0.36v0.09l0.03,0.5
			c0,0.02,0.01,0.04,0.03,0.06c0,0.14,0.01,0.31,0.03,0.51c0,0.06,0.01,0.13,0.03,0.21v0.12v0.06v0.14l0.06,0.48l0.03,0.53
			l0.06,0.71l0.03,0.56c0,0.08,0.01,0.16,0.03,0.24v0.09v0.15l0.03,0.29l0.03,0.3l0.06,0.65v0.12c0,0.06,0.01,0.12,0.03,0.18v0.21
			v0.09c0.02,0.1,0.03,0.23,0.03,0.39v0.33v0.09v0.47v0.12v0.12v0.12v0.5v0.12v0.12c-0.02,0.12-0.03,0.26-0.03,0.42l-0.03,0.12
			c0.01,0.08,0.01,0.18-0.03,0.3v0.21l-0.06,0.56l-0.03,0.06l-0.09,0.89l-0.12,0.45l-0.03,0.24l-0.06,0.15v0.06l-0.03,0.09
			l-0.03,0.09l-0.03,0.09l-0.03,0.15l-0.03,0.12c-0.02,0.02-0.03,0.06-0.03,0.12c-0.04,0.1-0.08,0.22-0.12,0.36
			c-0.02,0.02-0.03,0.06-0.03,0.12c-0.08,0.16-0.15,0.36-0.21,0.59l-0.06,0.12c-0.02,0.02-0.03,0.06-0.03,0.12
			c-0.1,0.14-0.18,0.31-0.24,0.5c-0.1,0.16-0.2,0.35-0.29,0.59l-0.03,0.06l-0.09,0.09l-0.03,0.12c-0.1,0.12-0.2,0.28-0.29,0.47
			l-0.06,0.06l-0.03,0.09l-0.09,0.06l-0.03,0.06l-0.09,0.09l-0.03,0.09c-0.06,0.1-0.15,0.18-0.27,0.24
			c0.02-0.18,0.01-0.39-0.03-0.65v-0.71c0-0.1-0.01-0.19-0.03-0.3v-0.18c0.02-0.17,0.01-0.39-0.03-0.65l-0.03-1.19
			c0-0.06-0.01-0.13-0.03-0.21v-0.56c-0.02-0.14-0.03-0.28-0.03-0.44v-0.18c-0.04-0.13-0.05-0.31-0.03-0.5v-0.09l-0.03-0.03
			c0.02-0.16,0.01-0.36-0.03-0.59v-0.42c-0.02-0.1-0.03-0.19-0.03-0.3l-0.06-1.07c0-0.02-0.01-0.05-0.03-0.09l-0.09-1.81
			c0-0.14-0.01-0.31-0.03-0.5l-0.14-1.96c0-0.18-0.02-0.39-0.06-0.65l-0.06-1.01c-0.02-0.1-0.03-0.21-0.03-0.33l-0.03-0.06
			l-0.03-0.56l-0.03-0.09l-0.03-0.65l-0.03-0.06v-0.2l-0.03-0.12v-0.24l-0.03-0.26c-0.02-0.12-0.03-0.25-0.03-0.38v-0.33l-0.03-0.12
			v-0.21l-0.03-0.12l-0.03-0.3v-0.18l-0.12-1.1l-0.03-0.41c0-0.02-0.01-0.04-0.03-0.06v-0.3l-0.03-0.06c0-0.16-0.01-0.28-0.03-0.39
			l-0.03-0.45c-0.04-0.16-0.06-0.34-0.06-0.53v-0.09l-0.03-0.21l-0.09-0.92l-0.09-1.13v-0.09l-1.19-15.44
			c0.07-0.2,0.19-0.38,0.35-0.53l0.03-0.09l0.06-0.03l0.03-0.06l0.15-0.15c0.06-0.08,0.11-0.18,0.15-0.3l0.09-0.06l0.06-0.06
			l0.06-0.12l0.24-0.27l0.03-0.12c0.07-0.06,0.15-0.15,0.21-0.27l0.09-0.09l0.09-0.12l0.09-0.12l0.09-0.09l0.06-0.15l0.12-0.12
			c0.06-0.12,0.16-0.24,0.29-0.35l0.03-0.09l0.06-0.03l0.03-0.09l0.03-0.09c0.02,0,0.04-0.02,0.06-0.06l0.06-0.06l0.12-0.12
			l0.3-0.41l0.03-0.06L407.03,495.86z"/>
	</g>
</g>
</svg>
