<?xml version="1.0" encoding="utf-8"?>
<!-- Generator: Adobe Illustrator 22.0.0, SVG Export Plug-In . SVG Version: 6.00 Build 0)  -->
<svg version="1.1" id="Layer_1" xmlns="http://www.w3.org/2000/svg" xmlns:xlink="http://www.w3.org/1999/xlink" x="0px" y="0px"
	 viewBox="0 0 513.3 230.9" style="enable-background:new 0 0 513.3 230.9;" xml:space="preserve">
<style type="text/css">
	.st0{fill:#020304;}
</style>
<g>
	<path class="st0" d="M463.1,69.7c-2.9-2.1-5.9-1.7-8.3,0.5c-2.4,2.2-3.8,5-4.2,8.2c-0.7,5.8,2.3,8.5,8,7.8c2.8-0.3,5.6-0.2,8.4,0.1
		c0.8,0.1,2,1.1,2.2,1.9c0.2,0.8-0.5,2.1-1.1,2.7c-3.7,3.3-8.2,4.5-13.1,4.4c-5.3-0.2-7.5-3.1-6.7-8.3c0-0.1-0.1-0.2-0.3-0.5
		c-3,1.6-6,3.3-9.2,4.6c-3.2,1.4-6.6,2.3-9.9,3.5c0-0.8,0.2-1.2,0.5-1.6c3.6-5.9,3.1-10-1.8-14.8c-6-5.9-13.1-6.4-19.4-1.1
		c-3.2,2.7-5.9,6-8.5,9.2c-2,2.5-3.6,5.4-5.3,8.1c-3.9-1.2-5.4-4.8-7.8-7.9c-0.7,3.4-2.4,6.3,0,9.4c1.1,1.4,1.7,3.2,2.4,4.9
		c3.1,7.2,2.2,9.6-4.6,13.4c-6.7,3.7-13.7,6.6-21.1,8.6c-6.4,1.7-13,2.6-19.6,0.9c-4.9-1.3-8.4-4.2-9.9-9.2c-1.2-4-0.9-8.1,0.1-12.1
		c0.4-1.5,0.7-2.9,1.1-4.4c1-0.4,2.1-0.9,3.2-1.3c0.5,0.7,0.9,1.5,1.4,2.2c1.8,2.5,3.7,5,6.8,6.1c3.3,1.1,6.1,0,7.1-3.3
		c0.8-2.5,1.1-5.3,1.1-8c0-5-3.3-7.6-8.3-6.8c-1.9,0.3-3.7,0.8-6,1.4c-5.3-20.4-6-41.4-8.8-62.1c0.4-0.3,0.8-0.5,1.1-0.8
		c1,1.5,1.9,3,2.9,4.5c0.3-0.2,0.7-0.5,1-0.7c-2.3-5.9-4.5-11.8-6.8-17.8c-0.2,0-0.5,0.1-0.7,0.1c-0.5,1.1-1.1,2.1-1.5,3.3
		c-0.8,1.9-2.9,3.7-0.8,6c0.1,0.1,0,0.4,0,0.6c0.9,10.9,1.7,21.7,2.7,32.6c1.2,11.9,3,23.8,6,35.4c0.3,1,0.2,1.4-0.8,1.8
		c-2.6,1-5.3,2.1-7.9,3.1c-1.1,0.4-1.5,0-2.1-0.9c-1.3-2-2.7-3.9-4.4-5.6c-2.8-2.7-6.3-2.6-9-0.1c-2.3,2.1-3.7,4.8-4.2,7.9
		c-0.6,4.4,1.4,7.1,5.7,7.4c2.9,0.2,5.9-0.1,8.8-0.4c2.2-0.2,2.9,0.1,2.8,2.4c0,1-0.4,2.1-1.1,2.8c-2,2.1-4.1,4.3-6.4,6.1
		c-5.4,4.4-11,8.3-17.8,10.2c-6.1,1.6-11.2,0.1-14.3-4.4c-2.7-3.9-2.6-8.3-1.9-12.6c0.3-1.8,0.7-3.6,1-5.4c-0.7,0.3-1,0.7-1.2,1.2
		c-2.3,6.1-3.4,12.3-2,18.8c1.2,5.7,5.2,9.6,10.8,10.4c3.2,0.5,6.3-0.1,9.3-1.3c7.8-3.1,14.1-8.2,19.9-14.1c3.8-3.9,6.1-8.4,6.1-14
		c0-0.5,0.3-1.2,0.7-1.4c2.1-0.9,4.2-1.8,6.3-2.7c-0.1,0.2-0.2,0.4-0.3,0.7c-2.3,5.6-3.3,11.4-2.7,17.4c0.6,6.8,3.7,12.2,10.6,14
		c3.8,1,7.9,1.5,11.7,1.2c12-1.2,22.7-6.1,32.7-12.6c3.6-2.4,5.7-5.8,6.4-10c0.4-2.3,0.6-4.7,0.9-6.6c18.4,3,35.8,0.9,52.1-9.1
		c0.3,1.4,0.6,2.6,0.9,3.8c0.8,3.4,2.9,5.2,6.4,5.1c1.7,0,3.4-0.1,5.1-0.4c6-0.9,10.9-3.5,13.1-9.6
		C474.2,83.4,469.6,74.3,463.1,69.7z M456.5,79c-0.6,0-1.2-0.8-1.8-1.2c0.6-0.6,1-1.6,1.8-1.9c2.2-0.8,4.4,0.2,6.1,2.7
		C460.4,78.7,458.4,79,456.5,79z M350.9,96.2c0.3,0.4,0.6,1.1,0.5,1.3c-0.3,0.4-0.9,0.7-1.4,0.7c-2.5,0-4.3-1.4-5.9-3.6
		C346.8,94.3,349.2,94.1,350.9,96.2z M318.9,96.5c-2-0.2-4.1-0.3-6.1-0.7c-1.4-0.3-1.5-1.7-0.2-2.3c0.9-0.4,2.2-0.5,3-0.1
		c1.3,0.5,2.4,1.6,3.5,2.4C319.1,95.9,319,96.2,318.9,96.5z M427.1,91.2c-9.4,4.7-19.1,6.7-29.6,4.3c-0.1,0-0.2-0.1-0.5-0.3
		c2.9-4.8,6.1-9.1,10.6-12.2c4.8-3.3,10-3.4,14.8,0c2,1.4,3.6,3.3,5.2,5.1C428.7,89.2,428.6,90.4,427.1,91.2z M428.7,122.7
		c-2.4-1.4-4.8-2.8-7.2-4.2c-1.2,2.2-2.3,4.2-3.5,6.4c2.5,1.5,4.9,2.8,7.3,4.2c1-1.8,2-3.4,3-5.2c2.4,1.4,4.8,2.8,7.2,4.2
		c1.2-2.2,2.3-4.2,3.5-6.3c-2.5-1.5-4.9-2.9-7.3-4.3C430.6,119.3,429.7,121,428.7,122.7z M444.9,61.2c2.4,1.5,4.7,2.8,7.3,4.3
		c1.2-2.2,2.3-4.2,3.5-6.3c-2.5-1.5-4.8-2.8-7.3-4.3C447.3,57.1,446.1,59,444.9,61.2z M397.5,63.7c2.5,1.5,4.8,2.9,7.3,4.3
		c1.2-2.1,2.3-4.1,3.5-6.3c-2.5-1.5-4.8-2.8-7.3-4.3C399.8,59.6,398.7,61.5,397.5,63.7z M465.5,36.1l0.2-2.9
		c-6.1,2.9-10.8,5.2-14.2,7c-8.5,4.5-14.5,7.9-18.2,9.9l-0.3,2.9c7.7-4.4,13.7-7.7,18.2-9.9C457.8,39.8,462.5,37.5,465.5,36.1z
		 M379.7,60.2c1.6,0,4.7-2.1,9.4-6.4s7.8-7.8,9.2-10.5c1.7,0.8,2.8,1.3,3.4,1.5c0.4,0.1,0.7-0.2,1-0.9c0.3-0.8,0.3-1.5,0.1-2.1
		c-1-0.9-2-1.6-2.9-2.1c0.5-1.3,0.7-2.5,0.7-3.6c0-2.8-1.2-4.3-3.6-4.3c-0.8,0-1.8,0.8-2.9,2.3c-1.1,1.5-1.7,2.7-1.7,3.5
		c0,1.4,0.4,2.5,1.3,3.3c1,0.6,2,1.2,2.9,1.8c-1,2.2-3.9,5.4-8.8,9.6c-2.9,2.5-5.9,5-8.8,7.6C379.2,60.1,379.4,60.2,379.7,60.2z
		 M395.2,36.6c0.1-0.8,0.6-1.2,1.5-1.2c1.1,0,1.7,0.9,1.7,2.8c0,0.4,0,0.8-0.2,1.2C396.1,38.2,395.1,37.3,395.2,36.6z M465.5,124.5
		c-0.5,0.5-1.2,1-1.9,1c-0.5,0-1.2-0.8-1.4-1.4c-0.3-0.8-0.5-1.7-0.4-2.6c0.7-4.4,1.5-8.8,2.2-13.3c0.1-0.6,0.3-1.2,0.4-1.9
		c-0.2-0.1-0.3-0.1-0.5-0.2c-0.5,1-1.2,1.9-1.5,2.9c-0.9,3.3-1.7,6.7-2.3,10.1c-0.5,2.9-0.5,5.9,1.1,8.6c0.9,1.5,2.1,1.8,3.6,0.9
		c1.5-0.9,2.5-4.4,1.6-6.3C466.1,123.3,466,124,465.5,124.5z M273.3,89c-0.9,2.3-0.8,4.4,0.8,6.4c0.6,0.8,1.1,1.9,1.3,2.8
		c0.1,0.7-0.2,1.8-0.7,2.2c-3.4,2.4-10.3,1.4-11.5-4.2c-0.7-3-1.3-6.1-1.6-9.1c-1.2-12.4-5-23.8-11.9-34.1c-0.4-0.6-0.9-1.3-1.3-1.9
		c-0.2,0.1-0.3,0.1-0.5,0.2c-0.2,3.4-1.1,6.6,0.5,10.1c3.9,8.4,7.3,17,9.5,26.1c0.5,2.1,0,3.7-1.5,5.2c-6.7,6.4-14,11.9-22.5,15.9
		c-4,1.9-8.1,3-12.6,1.9c-2.4-0.6-3.5-1.9-3.9-4.3c-0.1-0.6-0.1-1.2-0.1-1.8c2.6-4.7,3.6-9.9,2.9-15.2c-1.2-9.5-5.2-35.3-6.7-44.8
		c-1-6.2-2.2-12.4-3.3-18.9c1.6,1.5,3,2.8,4.4,4c0.2-0.2,0.5-0.3,0.7-0.5c-2.6-6-5.3-11.9-7.9-17.8c-0.3,0-0.5,0.1-0.8,0.1
		c-0.4,3.1-4.2,5.6-1.6,9.4c0.1,0.2,0.1,0.5,0.1,0.8c2.2,13.4,6.9,43.1,9,56.5c0.9,6,1.7,12,2.4,18c0.3,1.9,0.2,3.7-1.3,5.3
		c-3.6,3.8-11.1,4.1-14.9,0.5c-2.7-2.5-3.7-5.9-4.4-9.4c-1-5.2-2-10.3-3.2-15.5c-0.3-1.2-1.2-2.3-1.8-3.4c-0.2,0-0.5,0.1-0.7,0.1
		c-0.4,1.3-0.9,2.5-1.4,3.8c-0.6,1.8-1.1,3.8-1.9,5.5c-1.2,2.6-3.5,3.7-6.3,3.7c-2.8,0-4.9-1-6.3-3.5c-0.4-0.8-0.9-1.5-1.3-2.3
		c-0.2,0-0.3,0.1-0.5,0.2c-0.2,1.1-0.4,2.2-0.7,3.2c-0.6,2.2-0.3,4.1,0.8,6.1c1.4,2.5,2.4,5.2,3.4,7.8c0.9,2.3,0.5,4.4-1.6,5.8
		c-5.3,3.6-10.4,7.5-15.9,10.8c-4.5,2.7-9.6,4-15,3.1c-5.8-0.9-9.4-4.5-9.3-10.4c0.1-3,0.7-5.9,1.3-8.8c2.2-0.8,4.3-2,6.2-3.5
		c1-0.8,1.9-0.8,3-0.3c4.4,1.6,9,2,13.7,1.5c3.1-0.4,4.8-2.2,5.3-5.1c1-5.3-0.3-9.9-4.8-13.3c-1.8-1.3-3.8-2.4-5.6-3.6
		c-1.5-1-3-2.1-4.8-3.4c1.3-0.1,1.9-0.1,2.6-0.1c0-0.1,0.1-0.3,0.1-0.4c-2.7-1.7-5.4-3.4-8.5-5.3c-0.2,1.9-0.3,3.4-0.6,4.8
		c-0.2,1.1-0.6,2.2-1.1,3.2c-1.4,2.8-3.1,5.4-4.2,8.3c-1.2,3.3-1.7,6.8,0.8,9.9c-3.4,2.4-6.9,2.9-10.8,1.7c-4.5-1.4-6.9-4.8-7.9-9
		c-1.4-6.6-2.2-13.3-3.2-19.9c-1.7-11.2-3.3-22.4-5.1-33.6c-0.8-4.9-2.4-9.5-4.6-14c-0.2,0-0.3,0-0.5,0c-0.6,2.1-1.2,4.1-1.7,6.2
		c-0.1,0.3,0.1,0.7,0.2,1c3.4,8.3,4.7,17.2,5.9,26c1.5,10.7,2.6,21.4,3.9,32.2c0.6,4.6,1.7,9,4.4,12.9c2.6,3.8,6.4,5.7,11,5.4
		c1.2-0.1,2.4-0.2,3.5-0.5c-1.5,4.7-1.9,9.6-1.4,14.6c0.6,7,4.8,10.9,11.8,11.4c2,0.1,4.1,0,6-0.5c9.4-2.3,17.3-7.3,24.3-13.9
		c3.2-3.1,4.8-6.9,5.2-11.3c0.2-1.9,0.3-3.7,0.5-5.8c6.9-0.7,9.3-5.6,10.5-11.7c0.6,1.2,0.9,2.3,1.1,3.4c1.1,5.5,2,11.1,3.2,16.7
		c0.6,2.7,1.9,5.1,4.2,6.9c5.1,3.9,12.4,3,16.9-1.5c0,0.5-0.1,1-0.1,1.5c-0.1,5.3,2.8,8.6,8,9.1c2.3,0.2,4.9-0.2,7-1
		c9.1-3.4,16.9-8.8,23.7-15.5c2.5-2.5,4.5-5.4,5.1-9.1c0.1,0.6,0.2,1.2,0.3,1.8c0.4,2.5,0.6,5,1.3,7.5c0.8,3.1,2.7,5.6,6,6.5
		c3.6,1,6.5-0.3,9-2.8c4.3-4.4,3.9-13.3-1.1-19.9C273.9,86.8,273.8,88,273.3,89z M160.2,85.9c0.7,0.5,1.3,2,1,2.5
		c-0.4,0.7-1.7,1.3-2.6,1.3c-3.3-0.2-6.6-0.7-10-1.1c1-3,1.8-5.7,2.8-8.7C154.3,81.9,157.3,83.8,160.2,85.9z M140.8,79
		c1.1-1.3,2-3.1,3.9-2.8c2,0.3,2.4,2.4,3.1,4c0.4,0.9,0.6,1.9,0.8,2.8c-0.1,2.6-3.5,4.9-5.9,4C137.9,84.9,137.4,83.1,140.8,79z
		 M353,23.9c1.3,13.3,2.7,26.7,3.8,40c1,11.5,1.6,23,2.3,34.5c0.1,1.6,0.1,3.2,0.2,4.7c0.2,0,0.3,0,0.5,0.1c0.2-0.2,0.4-0.4,0.5-0.6
		c0.2-0.5,0.4-0.9,0.6-1.4c1.9-5.1,2.9-10.5,2.4-15.9c-1.3-15.9-2.8-31.7-4.3-47.5c-0.3-3.4-0.8-6.9-1.2-10.8c1.6,1.6,2.8,3,4.1,4.3
		c0.3-0.2,0.5-0.4,0.8-0.5c-2.3-6-4.6-12.1-6.9-18.1c-0.2,0-0.5,0.1-0.7,0.1c-1,2.1-2,4.3-3,6.5c-0.2,0.4-0.1,0.9,0,1.3
		C352.4,21.7,352.9,22.8,353,23.9z M283,23.9c1.3,13.3,2.7,26.7,3.8,40c1,11.5,1.6,23,2.3,34.5c0.1,1.6,0.1,3.2,0.2,4.7
		c0.2,0,0.3,0,0.5,0.1c0.2-0.2,0.4-0.4,0.5-0.6c0.2-0.5,0.4-0.9,0.6-1.4c1.9-5.1,2.9-10.5,2.4-15.9c-1.3-15.9-2.8-31.7-4.3-47.5
		c-0.3-3.4-0.8-6.9-1.2-10.8c1.6,1.6,2.8,3,4.1,4.3c0.3-0.2,0.5-0.4,0.8-0.5c-2.3-6-4.6-12.1-6.9-18.1c-0.2,0-0.5,0.1-0.7,0.1
		c-1,2.1-2,4.3-3,6.5c-0.1,0.4-0.1,0.9,0,1.3C282.3,21.7,282.8,22.8,283,23.9z M278.3,67.4c-3.1,1.9-5.1,2.8-5.8,2.8
		c-1.1,0-2.4-0.8-3.9-2.3c0.6-0.8,1.3-1.4,1.9-1.8c0.3-0.1,0.6-0.3,0.9-0.3c0.5,0,0.8,0.2,1,0.5c0.3,0.6,0.6,1,0.8,1.2
		c0.4,0,0.7-0.4,1-1.3c0.3-0.7,0.4-1.2,0.4-1.4c0-1.3-0.6-2-1.7-2c-1.1,0-2.5,0.9-4.1,2.6c-1.6,1.8-2.4,3.2-2.4,4.3
		c0,0.6,0.4,1.2,1.1,1.9c0.7,0.6,1.4,1,2.1,1c-1,0.5-1.8,1-2.3,1.6c-0.3,0.5-0.6,1-0.9,1.4c-0.3,0.5-0.4,0.8-0.4,1
		c0,0.2,0.1,0.4,0.4,0.4c0.3,0,0.6-0.2,1-0.5c1.6-1.3,3.5-2.6,5.9-3.8c2.2-1.1,3.6-2,4.1-2.6c0.7-0.7,1-1.5,1-2.5
		C278.5,67.4,278.4,67.3,278.3,67.4z M301.1,53.9c0.5,0.6,1.3,1.2,1.6,2c1.1,2.2,2,4.5,3.1,6.7c0.5,1,1,2,1.6,2.9
		c0.2-0.1,0.4-0.1,0.6-0.2c0.2-0.7,0.5-1.4,0.6-2.1c0.4-2.5,0.6-4.9,1.1-7.4c0.4-2.3,0.9-4.6,1.7-6.8c0.6-1.7,2.1-1.9,3.4-0.6
		c0.5,0.5,1,1.1,1.8,2.1c0.4-1.4,0.6-2.3,0.8-3.2c0.3-1.5-1.2-3.3-3.2-4c-1.7-0.6-2.8-0.2-3.7,1.5c-0.6,1.1-1,2.3-1.3,3.5
		c-0.7,3.4-1.3,6.9-2,10.9c-0.6-1.4-1-2.4-1.5-3.3c-1.5-3.1-3.1-6.1-5.8-8.3c-1.2-1-2.8-2-4-1c-0.8,0.7-1,2.5-1,3.8
		C295,52.6,299.1,54.9,301.1,53.9z M258.5,127c-0.5,0.5-1.3,1-1.9,1c-0.5,0-1.2-0.8-1.4-1.4c-0.3-0.8-0.5-1.7-0.4-2.6
		c0.7-4.4,1.5-8.8,2.2-13.3c0.1-0.6,0.3-1.2,0.4-1.9c-0.2-0.1-0.3-0.1-0.5-0.2c-0.5,1-1.2,1.9-1.5,2.9c-0.9,3.3-1.7,6.7-2.3,10.1
		c-0.5,2.9-0.5,5.9,1.1,8.6c0.9,1.5,2.1,1.8,3.6,0.9c1.5-0.9,2.5-4.4,1.6-6.3C259.1,125.8,259,126.5,258.5,127z M107.2,87
		c1.4,2.2,1.1,2.7-1.4,3.7c-0.3,0.1-0.7,0.3-1,0.4c-5.1,1.5-8.9-1.6-8.3-6.7c0-0.2-0.1-0.4-0.1-0.6c-0.2-0.1-0.3-0.1-0.5-0.2
		c-1.2,1.7-2.6,3.3-3.5,5.1c-2.4,4.9-11.2,6.2-15,2.7c-1.7-1.5-3.1-3.4-4.4-5.2c-2.3-3.2-3.8-3.5-6.9-1c-0.4,0.3-0.7,0.6-1,1
		c-3.5,3.5-5.5,7.9-7.6,12.4c-1.3,2.7-2.8,5.3-4.5,7.7c-1.6,2.3-4,2.4-5.9,0.4c-1.3-1.4-2.4-3.2-3.1-5c-1.5-4-0.9-8.1-0.4-12.2
		c0.1-0.5,0-1,0-1.5c-0.3,0-0.5-0.1-0.8-0.1c-0.4,2.1-1,4.1-1.3,6.3c-0.7,5.1-0.4,10.1,2.6,14.5c1.6,2.3,3.2,4.7,6.3,4.4
		c3.2-0.2,4.6-2.8,5.8-5.4c1.2-2.6,2.1-5.2,3.3-7.8c1.4-3.1,2.9-6.1,5.7-8.1c2.3-1.7,3.8-1.5,5.7,0.5c1.3,1.4,2.5,3,3.9,4.3
		c2.4,2.5,5.3,3.7,8.9,3.2c3.5-0.5,5.9-2.6,8.1-5.3c0.7-0.9,1.4-1.9,2.2-3.1c0.3,1,0.3,1.9,0.7,2.4c1,1.3,2,2.9,3.4,3.6
		c3.2,1.6,9.1-0.2,10.7-3.4c0.9-1.8,1.3-3.9,1.5-5.9c0.2-3.2-0.5-6.3-2.9-9.3C106.8,81.9,105.4,84.3,107.2,87z M67.4,63.8
		c-2.3-1.4-4.5-2.6-6.7-3.9c-1.1,2-2.2,3.9-3.3,5.9c2.3,1.4,4.5,2.7,6.8,4c1-1.7,1.9-3.3,2.8-5c2.3,1.3,4.5,2.6,6.8,3.9
		c1.1-2,2.2-3.9,3.2-5.9c-2.4-1.4-4.5-2.7-6.8-4C69.3,60.6,68.3,62.2,67.4,63.8z M86.7,115.7c-2.3-1.3-4.4-2.6-6.7-3.9
		c-1.1,2-2.2,3.9-3.3,5.9c2.3,1.4,4.5,2.6,6.8,3.9c1-1.7,1.9-3.2,2.8-4.9c2.3,1.3,4.5,2.6,6.7,3.9c1.1-2,2.2-3.9,3.3-5.9
		c-2.4-1.4-4.6-2.7-6.8-4C88.6,112.5,87.7,114.1,86.7,115.7z M94.9,65.8c2.3,1.4,4.5,2.7,6.8,4c1.1-2,2.2-3.9,3.3-5.9
		c-2.3-1.3-4.4-2.6-6.8-4C97,62,96,63.8,94.9,65.8z M182.7,116.8c2.4,1.4,4.5,2.6,6.8,3.9c1.1-2,2.2-3.9,3.3-5.8
		c-2.3-1.4-4.4-2.6-6.8-4C184.9,112.8,183.8,114.8,182.7,116.8z M157.5,33.8l0.2-2.7c-5.7,2.7-10.1,4.9-13.2,6.5
		c-7.9,4.3-13.5,7.3-17,9.3l-0.3,2.7c7.2-4.1,12.8-7.2,17-9.3C150.4,37.3,154.8,35.1,157.5,33.8z M175,54.3c1.5,0,4.4-2,8.7-6
		c4.4-4,7.2-7.3,8.6-9.8c1.6,0.8,2.6,1.3,3.1,1.5c0.3,0.1,0.6-0.2,0.9-0.9c0.3-0.7,0.3-1.4,0.1-2c-1-0.9-1.9-1.5-2.7-1.9
		c0.5-1.2,0.7-2.3,0.7-3.4c0-2.6-1.1-4-3.3-4c-0.8,0-1.7,0.7-2.7,2.1c-1.1,1.4-1.6,2.5-1.6,3.2c0,1.3,0.4,2.3,1.2,3
		c0.9,0.6,1.8,1.1,2.7,1.7c-0.9,2-3.7,5-8.2,9c-2.8,2.4-5.5,4.7-8.2,7.1C174.5,54.2,174.7,54.3,175,54.3z M189.5,32.2
		c0.1-0.8,0.6-1.1,1.4-1.1c1.1,0,1.6,0.9,1.6,2.6c0,0.4-0.1,0.8-0.1,1.1C190.4,33.7,189.4,32.9,189.5,32.2z M154.8,54.1
		c-1.1-0.9-2.6-1.9-3.8-0.9c-0.8,0.7-0.9,2.3-0.9,3.6c0,2,3.9,4.1,5.8,3.3c0.5,0.6,1.2,1.1,1.5,1.9c1,2.1,1.9,4.3,2.9,6.4
		c0.4,1,1,1.9,1.5,2.8c0.2-0.1,0.4-0.1,0.6-0.2c0.2-0.7,0.5-1.3,0.6-2c0.4-2.3,0.6-4.7,1-7c0.4-2.2,0.9-4.4,1.6-6.5
		c0.6-1.6,2-1.8,3.3-0.5c0.5,0.5,1,1.1,1.8,2c0.3-1.3,0.6-2.2,0.8-3c0.3-1.5-1.1-3.1-3-3.8c-1.6-0.6-2.7-0.2-3.5,1.5
		c-0.5,1.1-1,2.2-1.2,3.4c-0.7,3.3-1.2,6.5-1.9,10.3c-0.6-1.3-1-2.2-1.4-3.1C158.9,59,157.4,56.2,154.8,54.1z M115.4,120.4
		c-0.4,0.5-1.1,0.9-1.7,0.9c-0.5,0-1.1-0.7-1.3-1.2c-0.3-0.7-0.5-1.6-0.4-2.3c0.6-4,1.3-8,2-11.9c0.1-0.6,0.2-1.1,0.4-1.7
		c-0.1-0.1-0.3-0.1-0.4-0.2c-0.5,0.9-1.1,1.7-1.3,2.6c-0.8,3-1.5,6-2,9.1c-0.4,2.6-0.4,5.3,1,7.8c0.8,1.4,1.9,1.6,3.2,0.8
		s2.2-4,1.4-5.7C116,119.4,115.8,120,115.4,120.4z M66.6,43.3c0.3,0.1,0.7,0.3,1,0.5c1.3,0.5,2.8,1,4-0.1c1.2-1.2,0.8-2.7,0.4-4.1
		c0-0.1-0.1-0.3-0.2-0.4c-1.2-2.6-3.3-4.3-5.7-5.7c-1.4-0.8-2.7-0.1-2.3,1.4c0.4,1.5-0.4,2.6-0.8,3.8c-0.8,2.5-0.6,3,2,4.1
		c-2.8,3.1-6.1,5.2-9.4,7.3c-3.4,2.1-6.8,4.1-10.2,6.1c0.1,0.1,0.2,0.3,0.2,0.4C53.3,53.3,60.9,49.9,66.6,43.3z M68.5,38.4
		c0.5,0.3,1.1,0.5,1.4,0.9c0.6,0.7,1.7,1.4,0.9,2.3c-0.3,0.3-1.7-0.4-2.6-0.6c-0.2-0.1-0.3-0.5-0.5-0.9C67.9,39.6,68.2,39,68.5,38.4
		z M64.1,39.3c0-0.2-0.1-0.4-0.1-0.6c0.6-0.5,1.2-1.2,1.9-1.3c0.4,0,1.1,0.9,1.4,1.5c0.4,0.9-0.2,1.6-1.2,1.3
		C65.4,40,64.8,39.6,64.1,39.3z M84.5,44.6c0.4,1.8,0.4,3.7,1.1,5.4c1.1,2.6,4,2.6,5.6,0.3c0.3-0.4,0.6-0.9,1-1.5
		c0.4,0.5,0.6,0.9,1,1.3c1,0.9,2.1,1.5,3.5,1.1c1.2-0.4,1.7-1.4,1.9-2.6c0.1-0.6,0.2-1.3,0.1-1.8c-0.9-2.6-1.8-5.2-2.9-8.1
		c-0.7,1.6-1.2,2.8-0.5,4.2c0.6,1.1,1.1,2.3,1.4,3.5c0.2,0.6-0.1,1.3-0.1,2c-0.7-0.1-1.6,0-2.1-0.4c-0.6-0.4-1-1.3-1.2-2
		c-0.3-0.9-0.2-1.9-0.3-2.9c-0.2-1.4-0.3-2.8-1.5-3.8C91,40.3,91,41.3,91,42.4c0.1,1.3,0.4,2.6,0.4,4c0,1.5-1.4,2.8-2.9,2.8
		c-1.4,0-2.1-0.7-2.2-2.5c-0.1-1.6-0.1-3.2-0.2-4.8c-0.1-0.7-0.3-1.4-0.5-2c-0.2,0-0.3,0-0.5,0c-0.4,0.7-0.8,1.4-1.2,2.1
		c-0.2,0.3-0.1,0.8,0,1.1C84,43.5,84.3,44.1,84.5,44.6z M223.6,23.9c1.3,13.3,2.7,26.7,3.8,40c0.9,11.5,1.6,23,2.3,34.5
		c0.1,1.6,0.1,3.2,0.2,4.7c0.2,0,0.3,0,0.5,0.1c0.2-0.2,0.4-0.4,0.5-0.6c0.2-0.5,0.4-0.9,0.6-1.4c1.9-5.1,2.9-10.5,2.4-15.9
		c-1.3-15.9-2.8-31.7-4.3-47.5c-0.3-3.4-0.8-6.9-1.2-10.8c1.6,1.6,2.8,3,4.1,4.3c0.3-0.2,0.5-0.4,0.8-0.5c-2.3-6-4.6-12.1-6.9-18.1
		c-0.2,0-0.5,0.1-0.7,0.1c-1,2.1-2,4.3-3,6.5c-0.1,0.4-0.1,0.9,0,1.3C223,21.7,223.5,22.8,223.6,23.9z"/>
	<path class="st0" d="M140.2,149.8H126v0.3c0.4,0,0.6,0,0.8,0c0.2,0,0.4,0.1,0.4,0.2c0.1,0.1,0.2,0.3,0.2,0.5c0,0.2,0.1,0.5,0.1,0.8
		v18c0,0.4,0,0.6-0.1,0.9c0,0.2-0.1,0.4-0.2,0.5c-0.1,0.1-0.3,0.2-0.5,0.2c-0.2,0-0.5,0-0.8,0v0.3h5.9v-0.3c-0.4,0-0.6,0-0.9,0
		c-0.2,0-0.4-0.1-0.5-0.2c-0.1-0.1-0.2-0.3-0.2-0.5c0-0.2,0-0.5,0-0.9l0-8.7h6.2c0.7,0,1.3,0.1,1.6,0.3c0.3,0.2,0.5,0.6,0.6,1.4h0.4
		v-4.8h-0.4c-0.1,0.4-0.1,0.7-0.2,0.9c-0.1,0.2-0.2,0.4-0.4,0.5c-0.2,0.1-0.4,0.2-0.6,0.2c-0.3,0-0.6,0-0.9,0h-6.2V152
		c0-0.4,0-0.6,0.1-0.6c0.1-0.1,0.3-0.1,0.6-0.1h6.3c0.4,0,0.7,0,1,0s0.5,0.1,0.7,0.2c0.2,0.1,0.4,0.3,0.5,0.5c0.1,0.2,0.2,0.6,0.3,1
		h0.4L140.2,149.8z M160.5,170.2l-8.6-20.7h-1.8l-8.3,19.9c-0.1,0.2-0.2,0.4-0.3,0.6c-0.1,0.2-0.2,0.4-0.4,0.6
		c-0.1,0.2-0.3,0.3-0.5,0.5c-0.2,0.1-0.4,0.2-0.7,0.2v0.3h4.5v-0.3c-0.7,0-1.1-0.1-1.2-0.5c-0.1-0.3,0-0.7,0.2-1.3l1.8-4.5h9.7
		l2,4.9c0.2,0.5,0.2,0.9,0,1.1c-0.2,0.2-0.6,0.3-1.1,0.3v0.3h5.8v-0.3C161.2,171.2,160.7,170.8,160.5,170.2z M146.1,163.5l4.3-10.5
		l4.3,10.5H146.1z M165.8,150.1c0.4,0,0.7,0,0.9,0s0.4,0.1,0.5,0.2c0.1,0.1,0.2,0.3,0.3,0.5c0,0.2,0.1,0.5,0.1,0.9v18
		c0,0.4,0,0.7-0.1,0.9s-0.1,0.4-0.3,0.5c-0.1,0.1-0.3,0.2-0.5,0.2s-0.5,0-0.9,0v0.3h6.3v-0.3c-0.4,0-0.7,0-0.9,0s-0.4-0.1-0.5-0.2
		s-0.2-0.3-0.3-0.5s-0.1-0.5-0.1-0.9v-18c0-0.4,0-0.7,0.1-0.9s0.1-0.4,0.3-0.5c0.1-0.1,0.3-0.2,0.5-0.2s0.5,0,0.9,0v-0.3h-6.3V150.1
		z M193.4,167.7H193c-0.2,0.8-0.5,1.4-0.9,1.8c-0.4,0.4-1,0.6-1.9,0.6h-10.3l13-19.1v-1.2h-15.6l-0.4,3.9h0.4
		c0.1-0.9,0.4-1.5,0.9-1.9s1.1-0.5,2-0.5h9.3l-13.2,19.2v1.1H193L193.4,167.7z M224.4,164v-12.1c0-0.3,0-0.6,0.1-0.8
		s0.2-0.5,0.4-0.7s0.4-0.3,0.7-0.3h0.5v-0.3H221v0.3c0.5,0,0.8,0.1,1,0.2s0.4,0.3,0.5,0.5c0.1,0.2,0.1,0.5,0.1,0.8v12.8
		c0,1.9-0.5,3.4-1.6,4.4c-1,1.1-2.5,1.6-4.4,1.6c-2.1,0-3.6-0.6-4.5-1.7c-0.9-1.1-1.4-2.7-1.4-4.7v-12.3c0-0.4,0-0.7,0.1-0.9
		c0-0.2,0.1-0.4,0.2-0.5c0.1-0.1,0.3-0.2,0.5-0.2c0.2,0,0.5,0,0.8,0v-0.3h-6v0.3h0.5c0.6,0,0.9,0.1,1,0.4c0.1,0.3,0.2,0.7,0.2,1.1
		v12.2c0,2.6,0.7,4.6,2.1,6s3.4,2.1,6,2.1c2.6,0,4.6-0.7,6-2.1C223.7,168.6,224.4,166.6,224.4,164z M246.5,167.7l-0.4-0.1
		c-0.3,0.6-0.5,1-0.8,1.3c-0.3,0.3-0.6,0.6-0.9,0.7s-0.7,0.3-1.2,0.3c-0.5,0-1,0.1-1.5,0.1h-4.7c-0.1,0-0.3,0-0.5,0
		c-0.2,0-0.4,0-0.5,0c-0.2,0-0.3-0.1-0.4-0.2c-0.1-0.1-0.2-0.2-0.2-0.4v-17.8c0-0.4,0-0.6,0.1-0.9c0-0.2,0.1-0.4,0.2-0.5
		c0.1-0.1,0.3-0.2,0.5-0.2s0.5,0,0.8,0v-0.3h-6v0.3c0.4,0,0.6,0,0.8,0c0.2,0,0.4,0.1,0.5,0.2c0.1,0.1,0.2,0.3,0.2,0.5
		c0,0.2,0,0.5,0,0.8v18c0,0.4,0,0.6,0,0.9c0,0.2-0.1,0.4-0.2,0.5c-0.1,0.1-0.3,0.2-0.5,0.2c-0.2,0-0.5,0-0.8,0v0.3h14.6L246.5,167.7
		z M272.2,167.6l-7.9-17.9h-5v0.3c0.4,0,0.6,0,0.9,0c0.2,0,0.4,0.1,0.5,0.2s0.2,0.3,0.3,0.5c0,0.2,0.1,0.5,0.1,0.9v17.2
		c0,0.4,0,0.8,0,1.1c0,0.3-0.1,0.5-0.2,0.7s-0.3,0.3-0.5,0.4s-0.6,0.1-1,0.1v0.3h5.2v-0.3c-0.5,0-0.8,0-1-0.1
		c-0.2-0.1-0.4-0.3-0.5-0.5c-0.1-0.2-0.1-0.5-0.2-0.8c0-0.3,0-0.7,0-1.1v-16.2l8.3,18.9h1.1l8.3-19.3v17.4c0,0.4,0,0.6-0.1,0.9
		c0,0.2-0.1,0.4-0.2,0.5c-0.1,0.1-0.3,0.2-0.5,0.2c-0.2,0-0.5,0-0.8,0v0.3h6v-0.3c-0.4,0-0.6,0-0.8,0c-0.2,0-0.4-0.1-0.5-0.2
		c-0.1-0.1-0.2-0.3-0.2-0.5c0-0.2,0-0.5,0-0.9v-18c0-0.3,0-0.6,0-0.8c0-0.2,0.1-0.4,0.2-0.5c0.1-0.1,0.3-0.2,0.5-0.2s0.5,0,0.8,0
		v-0.3h-5L272.2,167.6z M309.4,170.2l-8.6-20.7h-1.8l-8.3,19.9c-0.1,0.2-0.2,0.4-0.3,0.6c-0.1,0.2-0.2,0.4-0.4,0.6
		c-0.1,0.2-0.3,0.3-0.5,0.5c-0.2,0.1-0.4,0.2-0.7,0.2v0.3h4.5v-0.3c-0.7,0-1.1-0.1-1.2-0.5c-0.1-0.3,0-0.7,0.2-1.3l1.8-4.5h9.7
		l2,4.9c0.2,0.5,0.2,0.9,0,1.1c-0.2,0.2-0.6,0.3-1.1,0.3v0.3h5.8v-0.3C310.1,171.2,309.7,170.8,309.4,170.2z M295,163.5l4.3-10.5
		l4.3,10.5H295z M329.2,171.8h1.4c1.1-3.5,2.1-6.9,3.2-10.3s2.2-6.8,3.4-10.3c0.1-0.4,0.3-0.7,0.5-0.9c0.2-0.2,0.5-0.3,0.9-0.3v-0.3
		h-4.5v0.3c0.6,0,1,0.2,1.2,0.5s0.1,0.7-0.1,1.3l-5,15.5l-5.3-16.1c-0.1-0.3-0.1-0.5,0-0.6c0.1-0.1,0.1-0.3,0.3-0.3
		c0.1-0.1,0.3-0.1,0.5-0.2c0.2,0,0.4,0,0.6,0v-0.3h-5.9v0.3c0.4,0,0.7,0,0.9,0.1c0.2,0.1,0.4,0.3,0.6,0.7l1,2.3l-4.5,14l-5.2-16
		c-0.2-0.5-0.1-0.8,0.1-0.9c0.2-0.1,0.5-0.2,1-0.2v-0.3h-5.4v0.3c0.5,0,0.9,0.2,1.1,0.5c0.2,0.3,0.4,0.7,0.6,1.1l6.5,20.1h1.4
		l5.3-16.5L329.2,171.8z M337.6,170c-0.1,0.2-0.2,0.4-0.4,0.6c-0.1,0.2-0.3,0.3-0.5,0.5c-0.2,0.1-0.4,0.2-0.7,0.2v0.3h4.5v-0.3
		c-0.7,0-1.1-0.1-1.2-0.5c-0.1-0.3,0-0.7,0.2-1.3l1.8-4.5h9.7l2,4.9c0.2,0.5,0.2,0.9,0,1.1c-0.2,0.2-0.6,0.3-1.1,0.3v0.3h5.8v-0.3
		c-0.7-0.1-1.1-0.5-1.4-1.1l-8.6-20.7h-1.8l-8.3,19.9C337.8,169.6,337.7,169.8,337.6,170z M346.3,153l4.3,10.5h-8.5L346.3,153z
		 M368,171.3c-0.4,0-0.7,0-0.9,0c-0.2,0-0.4-0.1-0.5-0.2s-0.2-0.3-0.3-0.5s-0.1-0.5-0.1-0.9v-18c0-0.4,0-0.7,0.1-0.9
		s0.1-0.4,0.3-0.5c0.1-0.1,0.3-0.2,0.5-0.2c0.2,0,0.5,0,0.9,0v-0.3h-6.3v0.3c0.4,0,0.7,0,0.9,0c0.2,0,0.4,0.1,0.5,0.2
		c0.1,0.1,0.2,0.3,0.3,0.5c0,0.2,0.1,0.5,0.1,0.9v18c0,0.4,0,0.7-0.1,0.9s-0.1,0.4-0.3,0.5s-0.3,0.2-0.5,0.2c-0.2,0-0.5,0-0.9,0v0.3
		h6.3V171.3z M391.6,155.9c-0.6-1.4-1.4-2.5-2.4-3.4c-1-0.9-2.3-1.6-3.8-2s-3.1-0.7-4.9-0.7H373v0.3c0.3,0,0.6,0,0.8,0
		s0.4,0.1,0.5,0.2c0.1,0.1,0.2,0.3,0.2,0.5c0,0.2,0.1,0.5,0.1,0.9v18c0,0.4,0,0.6-0.1,0.9c0,0.2-0.1,0.4-0.2,0.5
		c-0.1,0.1-0.3,0.2-0.5,0.2c-0.2,0-0.5,0-0.8,0v0.3h7.2c1.6,0,3.2-0.2,4.7-0.6c1.5-0.4,2.9-1.1,4.2-2.2c1.2-1,2.1-2.3,2.6-3.6
		c0.5-1.4,0.7-2.8,0.7-4.4C392.4,158.9,392.2,157.2,391.6,155.9z M388.9,164.9c-0.5,1.2-1.2,2.2-2.1,2.9c-0.9,0.8-2,1.3-3.3,1.7
		c-1.3,0.4-2.7,0.5-4.3,0.5c-0.1,0-0.3,0-0.5,0c-0.2,0-0.4,0-0.6-0.1c-0.2,0-0.4-0.1-0.5-0.2c-0.1-0.1-0.2-0.3-0.2-0.5v-17.4
		c0.3-0.3,0.7-0.4,1.1-0.5c0.4-0.1,0.8-0.1,1.2-0.1c1.5,0,2.9,0.2,4.1,0.6c1.2,0.4,2.3,1,3.2,1.7c0.9,0.8,1.5,1.7,2,2.9
		s0.7,2.5,0.7,4.1C389.7,162.3,389.4,163.7,388.9,164.9z M132.8,181.4c0.4,0,0.7,0,0.9,0s0.4,0.1,0.5,0.2c0.1,0.1,0.2,0.3,0.3,0.5
		s0.1,0.5,0.1,0.9v18c0,0.4,0,0.7-0.1,0.9c-0.1,0.2-0.1,0.4-0.3,0.5c-0.1,0.1-0.3,0.2-0.5,0.2s-0.5,0-0.9,0v0.3h6.3v-0.3
		c-0.4,0-0.7,0-0.9,0s-0.4-0.1-0.5-0.2s-0.2-0.3-0.3-0.5s-0.1-0.5-0.1-0.9v-18c0-0.4,0-0.7,0.1-0.9s0.1-0.4,0.3-0.5
		c0.1-0.1,0.3-0.2,0.5-0.2c0.2,0,0.5,0,0.9,0V181h-6.3V181.4z M158.4,200.2c-0.3,0.3-0.6,0.6-0.9,0.7s-0.7,0.3-1.2,0.3
		s-1,0.1-1.6,0.1H150c-0.1,0-0.3,0-0.5,0c-0.2,0-0.4,0-0.5,0c-0.2,0-0.3-0.1-0.4-0.2s-0.2-0.2-0.2-0.4v-17.8c0-0.4,0-0.6,0.1-0.9
		c0-0.2,0.1-0.4,0.2-0.5c0.1-0.1,0.3-0.2,0.5-0.2s0.5,0,0.8,0V181h-6v0.3c0.4,0,0.6,0,0.8,0c0.2,0,0.4,0.1,0.5,0.2s0.2,0.3,0.2,0.5
		c0,0.2,0.1,0.5,0.1,0.8v18c0,0.4,0,0.6-0.1,0.9c0,0.2-0.1,0.4-0.2,0.5c-0.1,0.1-0.3,0.2-0.5,0.2s-0.5,0-0.8,0v0.3h14.6l0.9-3.9
		l-0.4-0.1C158.9,199.4,158.6,199.9,158.4,200.2z M187,193.2c-0.5-0.5-1-0.8-1.7-1.1c-0.6-0.3-1.3-0.5-2-0.6
		c1.4-0.3,2.4-0.8,3.2-1.5c0.8-0.7,1.1-1.8,1.1-3.2c0-1.1-0.2-2-0.7-2.8c-0.4-0.7-1-1.3-1.8-1.7s-1.5-0.7-2.5-0.9
		c-0.9-0.2-1.9-0.2-2.8-0.2h-7.6v0.3c0.3,0,0.6,0,0.9,0s0.4,0.1,0.6,0.2c0.1,0.1,0.2,0.3,0.3,0.5s0.1,0.5,0.1,0.9v18
		c0,0.4,0,0.7-0.1,0.9c-0.1,0.2-0.1,0.4-0.3,0.5s-0.3,0.2-0.5,0.2c-0.2,0-0.5,0-0.9,0v0.3h8.2c1,0,1.9-0.1,2.9-0.3
		c1-0.2,1.8-0.5,2.6-1c0.8-0.5,1.4-1.1,1.8-1.9s0.7-1.7,0.7-2.9c0-0.8-0.1-1.5-0.4-2.1C187.9,194.1,187.5,193.6,187,193.2z
		 M176.9,183c0.1-0.1,0.3-0.3,0.5-0.3c0.2-0.1,0.5-0.1,0.7-0.1c0.3,0,0.5,0,0.8,0c0.3,0,0.5,0,0.6,0c0.7,0,1.3,0.1,2,0.2
		c0.6,0.1,1.2,0.4,1.7,0.7s0.9,0.7,1.2,1.3c0.3,0.5,0.5,1.2,0.5,2c0,0.8-0.1,1.4-0.4,1.9c-0.3,0.5-0.6,0.9-1.1,1.3
		c-0.4,0.3-1,0.6-1.6,0.7s-1.2,0.2-1.9,0.2h-3.1L176.9,183L176.9,183z M185.1,199.1c-0.4,0.6-0.8,1-1.4,1.4
		c-0.6,0.3-1.2,0.6-1.9,0.7c-0.7,0.1-1.5,0.2-2.2,0.2h-0.7c-0.3,0-0.5,0-0.8,0c-0.3,0-0.5-0.1-0.7-0.2c-0.2-0.1-0.4-0.3-0.5-0.5
		v-8.3h1.6c0.8,0,1.6,0,2.5,0.2c0.9,0.1,1.6,0.3,2.3,0.6c0.7,0.3,1.2,0.8,1.7,1.4s0.7,1.4,0.7,2.4
		C185.6,197.8,185.5,198.5,185.1,199.1z M206.7,181.4c0.4,0,0.8,0.1,1,0.2s0.4,0.3,0.5,0.5c0.1,0.2,0.1,0.5,0.1,0.8v12.8
		c0,1.9-0.5,3.4-1.6,4.4c-1,1.1-2.5,1.6-4.4,1.6c-2.1,0-3.5-0.6-4.5-1.7c-0.9-1.2-1.4-2.7-1.4-4.7v-12.3c0-0.4,0-0.7,0.1-0.9
		c0.1-0.2,0.1-0.4,0.3-0.5c0.1-0.1,0.3-0.2,0.5-0.2s0.5,0,0.8,0V181h-6v0.3h0.5c0.6,0,0.9,0.1,1,0.4c0.1,0.3,0.2,0.7,0.2,1.1v12.2
		c0,2.6,0.7,4.6,2.1,6c1.4,1.4,3.4,2.1,6,2.1c2.6,0,4.6-0.7,6-2.1c1.4-1.4,2.1-3.4,2.1-6v-12.1c0-0.3,0-0.6,0.1-0.8
		c0.1-0.3,0.2-0.5,0.4-0.7c0.2-0.2,0.4-0.3,0.7-0.3h0.5V181h-5.1V181.4z M233.8,201.9c-0.3-0.4-0.6-0.9-0.9-1.5
		c-0.3-0.6-0.7-1.2-1.1-1.9c-0.4-0.7-0.8-1.3-1.2-1.8c-0.4-0.5-0.7-0.9-1-1.2c-0.3-0.4-0.6-0.7-0.9-1c-0.3-0.3-0.6-0.7-1-1
		c-0.4-0.4-0.9-0.8-1.5-1.3c0.7-0.1,1.4-0.3,2.1-0.5c0.7-0.3,1.3-0.6,1.8-1c0.5-0.4,0.9-0.9,1.2-1.5c0.3-0.6,0.5-1.3,0.5-2.1
		c0-1.1-0.2-2-0.6-2.7c-0.4-0.7-0.9-1.3-1.6-1.8c-0.7-0.5-1.4-0.8-2.3-1c-0.9-0.2-1.8-0.3-2.7-0.3h-7.7v0.3c0.3,0,0.6,0,0.8,0
		c0.2,0,0.4,0.1,0.5,0.2c0.1,0.1,0.2,0.3,0.2,0.5c0,0.2,0,0.5,0,0.8v18c0,0.4,0,0.6,0,0.9c0,0.2-0.1,0.4-0.2,0.5
		c-0.1,0.1-0.3,0.2-0.5,0.2c-0.2,0-0.5,0-0.8,0v0.3h5.9v-0.3c-0.4,0-0.6,0-0.8,0s-0.4-0.1-0.5-0.2c-0.1-0.1-0.2-0.3-0.2-0.5
		c0-0.2-0.1-0.5-0.1-0.9v-8.3l2.3,0c0.9,0.8,1.7,1.6,2.4,2.3c0.7,0.7,1.4,1.5,2,2.3c0.6,0.8,1.2,1.6,1.7,2.6c0.5,0.9,1,1.9,1.6,3.1
		h3.6v-0.3C234.3,202.6,234.1,202.4,233.8,201.9z M224.9,190.9c-0.7,0.1-1.5,0.2-2.3,0.2H221v-8c0.1-0.1,0.3-0.3,0.5-0.4
		c0.2-0.1,0.4-0.1,0.7-0.2s0.5,0,0.7,0h0.6c0.7,0,1.3,0.1,2,0.2c0.6,0.1,1.2,0.3,1.7,0.6c0.5,0.3,0.9,0.7,1.2,1.2s0.5,1.2,0.5,2
		c0,0.9-0.2,1.7-0.5,2.3s-0.9,1.1-1.5,1.4C226.3,190.5,225.6,190.8,224.9,190.9z M252.4,181.4c0.4,0,0.6,0,0.8,0
		c0.2,0,0.4,0.1,0.5,0.2c0.1,0.1,0.2,0.3,0.2,0.5c0,0.2,0.1,0.5,0.1,0.9v7.9h-10.5v-7.9c0-0.3,0-0.6,0-0.8c0-0.2,0.1-0.4,0.2-0.5
		c0.1-0.1,0.3-0.2,0.5-0.2s0.5,0,0.8,0V181h-5.9v0.3c0.3,0,0.6,0,0.8,0c0.2,0,0.4,0.1,0.5,0.2c0.1,0.1,0.2,0.3,0.2,0.5
		c0,0.2,0.1,0.5,0.1,0.9v18c0,0.4,0,0.6-0.1,0.9c0,0.2-0.1,0.4-0.2,0.5c-0.1,0.1-0.3,0.2-0.5,0.2c-0.2,0-0.5,0-0.8,0v0.3h5.9v-0.3
		c-0.4,0-0.6,0-0.8,0c-0.2,0-0.4-0.1-0.5-0.2c-0.1-0.1-0.2-0.3-0.2-0.5c0-0.2,0-0.5,0-0.9v-8.5H254v8.5c0,0.4,0,0.6-0.1,0.9
		c0,0.2-0.1,0.4-0.2,0.5c-0.1,0.1-0.3,0.2-0.5,0.2s-0.5,0-0.8,0v0.3h6v-0.3c-0.4,0-0.6,0-0.8,0c-0.2,0-0.4-0.1-0.5-0.2
		c-0.1-0.1-0.2-0.3-0.2-0.5c0-0.2,0-0.5,0-0.9v-18c0-0.3,0-0.6,0-0.8c0-0.2,0.1-0.4,0.2-0.5c0.1-0.1,0.3-0.2,0.5-0.2s0.5,0,0.8,0
		V181h-6V181.4z M283,201.5l-8.6-20.7h-1.8l-8.3,19.9c-0.1,0.2-0.2,0.4-0.3,0.6c-0.1,0.2-0.2,0.4-0.4,0.6c-0.1,0.2-0.3,0.3-0.5,0.5
		c-0.2,0.1-0.4,0.2-0.7,0.2v0.3h4.5v-0.3c-0.7,0-1.1-0.1-1.2-0.5c-0.1-0.3,0-0.7,0.2-1.3l1.8-4.5h9.7l2,4.9c0.2,0.5,0.2,0.9,0,1.1
		s-0.6,0.3-1.1,0.3v0.3h5.8v-0.3C283.7,202.4,283.2,202.1,283,201.5z M268.6,194.7l4.3-10.5l4.3,10.5H268.6z M301.8,181.4
		c0.5,0,0.8,0,1,0.1c0.3,0.1,0.4,0.2,0.5,0.4c0.1,0.2,0.1,0.4,0.2,0.7s0,0.7,0,1.1v14.9c-2-3-4-5.9-6-8.8s-4.1-5.8-6-8.8h-4.3v0.3
		c0.3,0,0.6,0,0.7,0c0.2,0,0.3,0.1,0.4,0.2c0.1,0.1,0.2,0.2,0.3,0.4c0.1,0.2,0.2,0.4,0.3,0.7v17.5c0,0.4,0,0.8,0,1.1
		c0,0.3-0.1,0.5-0.2,0.7c-0.1,0.2-0.3,0.3-0.5,0.4c-0.2,0.1-0.6,0.1-1,0.1v0.3h5.2v-0.3c-0.4,0-0.8,0-1-0.1s-0.4-0.2-0.5-0.4
		c-0.1-0.2-0.1-0.4-0.2-0.7s0-0.6,0-1v-15.7l12.9,18.5h1.6v-19.3c0-0.4,0-0.8,0-1.1c0-0.3,0.1-0.5,0.2-0.7s0.3-0.3,0.5-0.4
		c0.2-0.1,0.6-0.1,1-0.1V181h-5.2L301.8,181.4L301.8,181.4z M312,181.4c0.4,0,0.7,0,0.9,0s0.4,0.1,0.5,0.2c0.1,0.1,0.2,0.3,0.3,0.5
		s0.1,0.5,0.1,0.9v18c0,0.4,0,0.7-0.1,0.9s-0.1,0.4-0.3,0.5s-0.3,0.2-0.5,0.2c-0.2,0-0.5,0-0.9,0v0.3h6.3v-0.3c-0.4,0-0.7,0-0.9,0
		s-0.4-0.1-0.5-0.2s-0.2-0.3-0.3-0.5s-0.1-0.5-0.1-0.9v-18c0-0.4,0-0.7,0.1-0.9c0-0.2,0.1-0.4,0.3-0.5s0.3-0.2,0.5-0.2
		c0.2,0,0.5,0,0.9,0V181H312V181.4z M334.4,202.3c-0.1-0.1-0.3-0.3-0.3-0.5c-0.1-0.2-0.1-0.5-0.1-0.9v-7.8l6.8-10.5
		c0.5-0.8,1.1-1.2,2-1.3V181h-5v0.3c0.2,0,0.4,0,0.6,0c0.2,0,0.3,0.1,0.4,0.2c0.1,0.1,0.2,0.2,0.2,0.4c0,0.1,0,0.4-0.2,0.6l-5.7,9
		l-5.8-8.9c-0.2-0.3-0.3-0.5-0.3-0.7c0-0.2,0-0.3,0.1-0.4c0.1-0.1,0.3-0.1,0.5-0.2c0.2,0,0.4,0,0.7,0V181h-6.1v0.3
		c0.5,0,0.9,0.1,1.1,0.4c0.2,0.2,0.5,0.6,0.8,1l7.1,10.5v7.7c0,0.4,0,0.7-0.1,0.9c0,0.2-0.1,0.4-0.3,0.5s-0.3,0.2-0.6,0.2
		c-0.2,0-0.5,0-0.9,0v0.3h6.5v-0.3c-0.4,0-0.7,0-0.9,0C334.8,202.5,334.6,202.4,334.4,202.3z M361,201.5l-8.6-20.7h-1.8l-8.3,19.9
		c-0.1,0.2-0.2,0.4-0.3,0.6c-0.1,0.2-0.2,0.4-0.4,0.6c-0.1,0.2-0.3,0.3-0.5,0.5c-0.2,0.1-0.4,0.2-0.7,0.2v0.3h4.5v-0.3
		c-0.7,0-1.1-0.1-1.2-0.5c-0.1-0.3,0-0.7,0.2-1.3l1.8-4.5h9.7l2,4.9c0.2,0.5,0.2,0.9,0,1.1c-0.2,0.2-0.6,0.3-1.1,0.3v0.3h5.8v-0.3
		C361.7,202.4,361.2,202.1,361,201.5z M346.6,194.7l4.3-10.5l4.3,10.5H346.6z M379.6,181.4c0.3,0,0.6,0,0.8,0c0.2,0,0.4,0.1,0.5,0.2
		c0.1,0.1,0.2,0.3,0.2,0.5c0,0.2,0.1,0.5,0.1,0.9v7.9h-10.5v-7.9c0-0.3,0-0.6,0-0.8c0-0.2,0.1-0.4,0.2-0.5c0.1-0.1,0.3-0.2,0.5-0.2
		s0.5,0,0.8,0V181h-5.9v0.3c0.4,0,0.6,0,0.8,0c0.2,0,0.4,0.1,0.5,0.2c0.1,0.1,0.2,0.3,0.2,0.5c0,0.2,0.1,0.5,0.1,0.9v18
		c0,0.4,0,0.6-0.1,0.9c0,0.2-0.1,0.4-0.2,0.5c-0.1,0.1-0.3,0.2-0.5,0.2c-0.2,0-0.5,0-0.8,0v0.3h5.9v-0.3c-0.3,0-0.6,0-0.8,0
		c-0.2,0-0.4-0.1-0.5-0.2s-0.2-0.3-0.2-0.5c0-0.2,0-0.5,0-0.9v-8.5h10.5v8.5c0,0.4,0,0.6-0.1,0.9c0,0.2-0.1,0.4-0.2,0.5
		c-0.1,0.1-0.3,0.2-0.5,0.2c-0.2,0-0.5,0-0.8,0v0.3h6v-0.3c-0.3,0-0.6,0-0.8,0s-0.4-0.1-0.5-0.2s-0.2-0.3-0.2-0.5c0-0.2,0-0.5,0-0.9
		v-18c0-0.3,0-0.6,0-0.8c0-0.2,0.1-0.4,0.2-0.5c0.1-0.1,0.3-0.2,0.5-0.2c0.2,0,0.5,0,0.8,0V181h-6V181.4z"/>
	<path class="st0" d="M503.3,168c-0.3-0.3-0.8-0.6-1.2-1c0.1-0.1,0.2-0.2,0.3-0.4c0.8-1.2,0.4-2.8-0.7-3.5
		c-4.4-2.9-9.2-4.9-14.3-6.1c-1.4-0.3-2.7,0.5-3,1.9c-0.1,0-0.3,0-0.4-0.1c-0.8-0.1-1.6-0.3-2.5-0.4c-1.7-0.1-3.5-0.3-5.3-0.2
		c-1.8,0-3.7,0.2-5.5,0.4c-0.9,0.1-1.9,0.4-2.8,0.5c-0.5,0.1-1,0.2-1.4,0.3L465,160c-1.9,0.5-3.8,1.3-5.7,2.1
		c-0.9,0.5-1.8,0.9-2.7,1.4c-0.9,0.5-1.8,1.1-2.7,1.6c-1.3,0.8-2.5,1.8-3.6,2.7c-0.2-3-0.8-6-1.7-8.6c-0.7-2.1-1.6-4-2.6-5.7
		c0.7-0.8,0.9-2.1,0.3-3.1c-2.5-3.9-5.7-7.3-9.6-10c-1.1-0.8-2.7-0.6-3.5,0.6c0,0,0,0,0,0c-0.1-0.1-0.2-0.1-0.3-0.2
		c-0.7-0.4-1.1-0.6-1.1-0.6s0.4,0.2,1,0.7c0.1,0.1,0.2,0.1,0.3,0.2c-0.7,1.1-0.4,2.6,0.7,3.4c3.3,2.4,6.1,5.3,8.3,8.7
		c0.5,0.8,1.3,1.2,2.1,1.2c0.2,0,0.3,0,0.5-0.1c0.9,1.7,1.6,3.5,2.2,5.5c0.8,2.8,1.3,5.8,1.3,8.9c0,0.4,0,0.7,0,1.1
		c-1.3,1.2-2.5,2.4-3.6,3.8c-2.6,3.3-4.9,6.8-7,10.3c-2.1,3.5-4,7-6.1,10.1c-2,3.2-4.4,6-6.8,8.5c-1.3,1.1-2.5,2.4-3.8,3.3
		c-1.3,1-2.5,2-3.9,2.7c-2.1,1.4-4.2,2.4-6.1,3.3c-1.1,0.4-2.1,0.9-3.1,1.3c-1.2,0.4-2.3,0.8-3.3,1.2c-0.2,0-0.3,0-0.5,0
		c0,0,30.3-15.5,30.3-46.7c0-23.3-16.7-30.1-24.4-29c-11,1.6-11.8,8.9-11.8,11.1s1.5,6.1,5.1,6.1c4.7,0,4.6-4.3,4.6-4.3
		s-0.5,2.1-2.7,2.1c-2.1,0-3.7-2.2-3.7-5.4c0-3.2,1.9-7.3,8.3-7.3c6.8,0,19.8,6.2,19.8,27c0,26-24.3,51.6-54.5,51.6
		c43.7,4,82.7-30.5,100.6-30.5c11.5,0,13.7,6.1,13.7,8.5c0,3.2-2.4,6.1-6.5,4c0,0,0.9,2.5,3.9,3c3,0.5,6.3-2.1,6.3-7.1
		c0-2.6-2-13.1-17.6-13.1c-18.4,0-47,26.6-67.2,29.8c1-0.3,2.1-0.6,3.2-1c1.1-0.4,2.3-0.7,3.5-1.3c1.2-0.5,2.5-1,3.8-1.5
		c1.3-0.6,2.6-1.2,4-1.9c1.3-0.7,2.7-1.5,4.1-2.2c1.3-0.9,2.7-1.7,4.1-2.6c1.3-1,2.7-1.9,4-3.1c0.6-0.6,1.3-1.1,2-1.7
		c0.6-0.6,1.2-1.2,1.9-1.8c2.4-2.5,4.7-5.3,6.5-8.3c1.8-3.1,3.3-6.4,4.2-9.7c0.7-2.6,1.1-5.2,1.1-7.8c1.6-1.4,3.2-2.8,4.9-3.9
		c1.6-1.1,3.4-2,5-2.9c1.8-0.8,3.5-1.6,5.3-2.1l1.3-0.4c0.5-0.1,0.9-0.2,1.4-0.3c0.9-0.2,1.8-0.5,2.7-0.6c1.8-0.3,3.5-0.6,5.3-0.6
		c1.7-0.2,3.4,0,5,0c0.8,0,1.6,0.2,2.4,0.3c0.3,0,0.5,0.1,0.8,0.1c0.3,0.7,0.9,1.3,1.8,1.5c4.5,1,8.7,2.8,12.6,5.4
		c0.4,0.3,0.9,0.4,1.4,0.4c0.6,0,1.2-0.2,1.6-0.6C502.4,167.5,502.9,167.8,503.3,168c0.7,0.6,1.1,0.9,1.1,0.9S504.1,168.7,503.3,168
		z M446.9,178.2c-0.9,3.2-2.3,6.2-4,9.1c-1.7,2.9-3.8,5.5-6.1,7.9c-0.6,0.6-1.2,1.2-1.7,1.8c-0.6,0.5-1.2,1.1-1.8,1.6
		c-1.2,1.1-2.5,2-3.8,3c-1.3,1-2.6,1.8-3.9,2.7c-0.1,0.1-0.3,0.2-0.4,0.3c0.3-0.2,0.5-0.5,0.8-0.7c2.6-2.5,5.2-5.3,7.3-8.6
		c2.2-3.2,4.3-6.7,6.3-10.1c2.1-3.5,4.3-6.9,6.8-10c0.4-0.5,0.9-1,1.3-1.5C447.6,175.2,447.3,176.7,446.9,178.2z M83.7,167.8
		c0-20.9,13-27,19.8-27c6.4,0,8.3,4.1,8.3,7.3c0,3.2-1.6,5.4-3.7,5.4c-2.2,0-2.8-2.1-2.8-2.1s-0.1,4.3,4.6,4.3
		c3.6,0,5.1-3.9,5.1-6.1c0-2.2-0.8-9.5-11.8-11.1c-7.7-1.1-24.4,5.7-24.4,29c0,31.3,30.3,46.7,30.3,46.7c-0.2,0-0.3,0-0.5,0
		c-1-0.4-2.1-0.8-3.3-1.2c-1-0.3-2-0.8-3.1-1.3c-1.9-0.9-4-1.9-6.1-3.3c-1.3-0.7-2.6-1.7-3.9-2.7c-1.4-0.9-2.5-2.2-3.8-3.3
		c-2.4-2.5-4.8-5.3-6.8-8.5c-2.1-3.2-4-6.6-6.1-10.1c-2.1-3.5-4.3-7-7-10.3c-1.1-1.3-2.3-2.6-3.6-3.8c0-0.4,0-0.7,0-1.1
		c0.1-3.1,0.5-6.1,1.3-8.9c0.6-2,1.4-3.8,2.2-5.5c0.2,0,0.3,0.1,0.5,0.1c0.8,0,1.7-0.4,2.1-1.2c2.2-3.4,4.9-6.3,8.3-8.7
		c1.1-0.8,1.4-2.3,0.7-3.4c0.1-0.1,0.2-0.1,0.3-0.2c0.7-0.5,1-0.7,1-0.7s-0.4,0.2-1.1,0.6c-0.1,0-0.2,0.1-0.3,0.2c0,0,0,0,0,0
		c-0.8-1.1-2.4-1.4-3.6-0.6c-3.8,2.8-7.1,6.2-9.6,10c-0.6,1-0.5,2.2,0.3,3.1c-1,1.7-1.9,3.6-2.6,5.7c-0.9,2.6-1.5,5.6-1.7,8.6
		c-1.2-1-2.3-1.9-3.6-2.7c-0.9-0.5-1.7-1.2-2.7-1.6c-0.9-0.5-1.8-0.9-2.7-1.4c-1.9-0.8-3.8-1.6-5.7-2.1l-1.4-0.4
		c-0.5-0.1-1-0.2-1.4-0.3c-0.9-0.2-1.9-0.4-2.8-0.5c-1.9-0.2-3.7-0.5-5.6-0.4c-1.8-0.1-3.6,0.1-5.3,0.2c-0.8,0-1.7,0.3-2.5,0.4
		c-0.2,0-0.4,0.1-0.7,0.1c-0.5-1-1.7-1.5-2.8-1.3c-5,1.1-9.8,3.2-14.3,6.1c-1.2,0.8-1.5,2.3-0.7,3.5c0,0,0,0,0,0
		c-0.3,0.3-0.7,0.5-0.9,0.8c-0.7,0.6-1.1,0.9-1.1,0.9s0.4-0.3,1.2-0.8c0.3-0.2,0.6-0.4,1-0.7c0.5,0.6,1.2,1,2,1c0.5,0,1-0.1,1.4-0.4
		c3.9-2.6,8.2-4.4,12.6-5.4c1.1-0.2,1.8-1.1,1.9-2.1c0.2,0,0.4,0,0.6-0.1c0.8-0.1,1.6-0.3,2.4-0.3c1.6,0,3.3-0.2,5,0
		c1.7,0,3.5,0.3,5.3,0.6c0.9,0.2,1.8,0.4,2.7,0.6c0.4,0.1,0.9,0.2,1.3,0.3l1.3,0.4c1.8,0.5,3.5,1.3,5.3,2.1c1.7,0.9,3.4,1.8,5.1,2.9
		c1.7,1.1,3.3,2.5,4.9,3.9c0.1,2.6,0.4,5.2,1.1,7.8c0.9,3.4,2.4,6.7,4.2,9.7c1.8,3.1,4.1,5.8,6.5,8.3c0.6,0.6,1.2,1.2,1.8,1.8
		c0.7,0.6,1.3,1.1,1.9,1.7c1.3,1.1,2.7,2.1,4,3.1c1.3,0.9,2.7,1.8,4.1,2.6c1.4,0.8,2.8,1.5,4.1,2.2c1.4,0.6,2.7,1.3,3.9,1.9
		c1.3,0.5,2.6,1,3.8,1.5c1.2,0.5,2.4,0.9,3.5,1.3c1.1,0.4,2.2,0.7,3.2,1c-20.2-3.2-48.8-29.8-67.2-29.8c-15.6,0-17.6,10.5-17.6,13.1
		c0,5,3.2,7.6,6.3,7.1c3-0.5,3.9-3,3.9-3c-4,2.1-6.5-0.8-6.5-4c0-2.3,2.1-8.5,13.7-8.5c17.9,0,56.9,34.4,100.6,30.5
		C108,219.4,83.7,193.8,83.7,167.8z M87.7,204.3c-1.3-0.9-2.6-1.7-3.8-2.7c-1.2-1-2.6-1.9-3.8-3c-0.6-0.5-1.2-1.1-1.8-1.6
		c-0.6-0.6-1.2-1.2-1.7-1.8c-2.3-2.4-4.4-5-6.1-7.9c-1.7-2.9-3.1-5.9-4-9.1c-0.4-1.5-0.7-3-0.9-4.5c0.4,0.5,0.9,1,1.3,1.5
		c2.6,3.1,4.8,6.5,6.8,10c2.1,3.5,4.1,6.9,6.3,10.1c2.2,3.3,4.8,6.1,7.3,8.6c0.3,0.2,0.6,0.5,0.8,0.7
		C88,204.5,87.9,204.4,87.7,204.3z"/>
</g>
</svg>
